<svg width="120" height="35" viewBox="0 0 120 35" fill="none" xmlns="http://www.w3.org/2000/svg">
<path d="M49.4802 12.4768C52.7358 12.4768 54.8837 13.7654 54.8837 16.2977V16.5247H52.0578V16.2757C52.0578 14.8735 50.9051 14.445 49.4802 14.445H49.0965C47.6259 14.445 46.6317 14.8287 46.6317 15.8453C46.6317 16.8619 47.5819 17.1355 50.0688 17.4516C53.6862 17.9475 55.0424 18.9429 55.0424 20.8191V20.9783C55.0424 23.171 53.0075 24.3702 49.5488 24.3702H49.1638C45.728 24.3702 43.6249 23.171 43.6249 20.5258V20.3456H46.428V20.5713C46.428 21.882 47.4681 22.38 49.164 22.38H49.5489C51.4029 22.38 52.2165 21.9275 52.2165 21.0226C52.2165 20.0294 51.2894 19.6888 48.6444 19.3499C45.5247 18.9662 43.7836 18.1751 43.7836 16.0267V15.8687C43.7836 13.7436 45.9087 12.4768 49.0968 12.4768H49.4802Z" fill="#18191F"/>
<path d="M60.894 9.46997V12.6801H66.7726V14.8285H60.894V20.2768C60.894 21.4761 61.5048 22.1308 62.6351 22.1308H63.0192C64.1496 22.1308 64.7384 21.4761 64.7384 20.2768V19.3719H67.3146V20.2768C67.3146 23.1486 65.5515 24.37 63.0426 24.37H62.657C60.0118 24.37 58.0229 23.1486 58.0229 20.2768V14.8285H56.2367V12.6801H58.0229V9.46997H60.894Z" fill="#18191F"/>
<path d="M75.4961 12.4768C78.9319 12.4768 81.5548 14.2415 81.5548 17.8354V19.1243H71.8335C71.8335 21.2261 73.0536 22.2438 75.1112 22.2438H75.4961C77.3502 22.2438 78.4123 21.5891 78.7517 20.3899H81.4192C81.0808 22.7871 79.1139 24.3702 75.4964 24.3702H75.1115C71.6757 24.3702 69.0753 22.6289 69.0753 19.0337V17.8355C69.0753 14.2417 71.6529 12.477 75.1115 12.477L75.4961 12.4768ZM71.8335 17.1792H78.7972C78.6604 15.5067 77.3723 14.5801 75.4961 14.5801H75.1112C73.1442 14.5797 71.9684 15.4847 71.8335 17.1794V17.1792Z" fill="#18191F"/>
<path d="M86.8398 7.41235V24.1431H83.9695V7.41235H86.8398Z" fill="#18191F"/>
<path d="M92.3543 7.41235V24.1431H89.4836V7.41235H92.3543Z" fill="#18191F"/>
<path d="M100.991 12.4766C104.698 12.4766 106.508 14.0144 106.508 16.6148V24.1424H103.614V22.6961H103.092C102.121 23.8721 100.809 24.37 98.9331 24.37C96.5369 24.37 94.7726 23.2835 94.7726 20.8875C94.7726 18.6484 96.2881 17.382 99.6787 17.382H103.614V16.6146C103.614 15.1897 102.618 14.557 100.967 14.557H100.584C99.046 14.557 97.9388 15.1676 97.9388 16.5918H95.09C95.09 13.991 96.988 12.4764 100.584 12.4764L100.991 12.4766ZM97.6219 20.6618C97.6219 21.6563 98.413 22.1994 100.018 22.1994C101.736 22.1994 103.614 21.5421 103.614 19.5752V19.124H99.996C98.3223 19.1241 97.6221 19.644 97.6221 20.6612L97.6219 20.6618Z" fill="#18191F"/>
<path d="M114.438 12.4768C117.693 12.4768 119.841 13.7654 119.841 16.2977V16.5247H117.015V16.2757C117.015 14.8735 115.863 14.445 114.438 14.445H114.054C112.585 14.445 111.589 14.8287 111.589 15.8453C111.589 16.8619 112.539 17.1355 115.026 17.4516C118.644 17.9475 120 18.9429 120 20.8191V20.9783C120 23.171 117.965 24.3702 114.506 24.3702H114.121C110.685 24.3702 108.582 23.171 108.582 20.5258V20.3456H111.386V20.5713C111.386 21.882 112.426 22.38 114.122 22.38H114.507C116.361 22.38 117.174 21.9275 117.174 21.0226C117.174 20.0294 116.247 19.6888 113.602 19.3499C110.483 18.9662 108.742 18.1751 108.742 16.0267V15.8687C108.742 13.7436 110.867 12.4768 114.055 12.4768H114.438Z" fill="#18191F"/>
<path d="M21.5928 34.2628H18.1253C13.3182 34.2628 8.708 32.3532 5.30879 28.9542C1.90958 25.5552 -0.000216183 20.9451 -0.000488281 16.138C-0.000488281 4.50848 7.22468 0.00012207 16.1376 0.00012207C26.1476 0.00012207 34.1318 6.84927 34.2623 18.1249V21.5925C34.1327 27.587 30.6565 34.2628 21.5928 34.2628Z" fill="#F15A01"/>
<path d="M14.4173 26.2116C11.7406 25.5632 10.1936 24.1181 10.1936 24.1181L12.2639 20.6508C12.2639 20.6508 14.6732 22.6956 16.696 22.6992C17.5949 22.6992 19.3081 22.6137 19.3122 20.9235C19.3122 19.6082 17.3817 19.0114 15.2302 17.9321C13.0602 16.8526 11.7892 15.1578 11.7931 13.2714C11.7962 10.4043 13.9465 8.42394 16.3813 7.88991C16.6074 7.5419 16.9337 7.27062 17.3171 7.11187C17.7006 6.95312 18.1231 6.91437 18.5291 7.00073C18.8133 7.06081 19.0816 7.18072 19.3159 7.35249C19.5502 7.52426 19.7453 7.74396 19.8881 7.99696C21.1125 8.26905 22.2755 8.76694 23.3175 9.46515C23.3247 9.46891 24.069 9.97369 24.069 9.97369L21.6522 12.7587C21.6522 12.7587 19.8545 11.5024 17.9866 11.5024C16.9436 11.4988 16.2625 11.8524 15.9822 12.4383H15.9784C15.8789 12.6529 15.8286 12.8871 15.8312 13.1236C15.8312 14.1325 17.5445 14.8588 19.6038 15.743C21.6265 16.6014 23.8408 18.3182 23.8368 20.6908C23.8305 24.4328 21.3625 26.0678 18.4068 26.4363C18.1967 26.7559 17.9104 27.0183 17.5738 27.1997C17.2371 27.3812 16.8606 27.4761 16.4781 27.4758C16.0513 27.4762 15.6328 27.3583 15.2689 27.1351C14.9051 26.9119 14.6103 26.5923 14.4173 26.2116Z" fill="white"/>
<path d="M24.0692 9.97305L21.6525 12.7581C21.6525 12.7581 19.8547 11.5018 17.9869 11.5018C16.9438 11.4982 16.2627 11.8518 15.9826 12.4376H15.979C18.544 7.0254 23.0157 9.39063 23.3177 9.46433C23.3244 9.46827 24.0692 9.97305 24.0692 9.97305Z" fill="url(#paint0_linear)"/>
<defs>
<linearGradient id="paint0_linear" x1="10.0489" y1="4.76859" x2="14.8825" y2="18.3646" gradientUnits="userSpaceOnUse">
<stop offset="0.141" stop-color="#999999"/>
<stop offset="0.799" stop-color="white"/>
</linearGradient>
</defs>
</svg>
