<svg width="130" height="38" viewBox="0 0 130 38" fill="none" xmlns="http://www.w3.org/2000/svg">
<path d="M53.6037 13.5165C57.1307 13.5165 59.4576 14.9125 59.4576 17.6558V17.9017H56.3962V17.6319C56.3962 16.1129 55.1474 15.6487 53.6037 15.6487H53.1881C51.5949 15.6487 50.5179 16.0644 50.5179 17.1657C50.5179 18.267 51.5473 18.5634 54.2414 18.9059C58.1603 19.4431 59.6295 20.5214 59.6295 22.554V22.7264C59.6295 25.1018 57.425 26.401 53.678 26.401H53.261C49.5389 26.401 47.2605 25.1018 47.2605 22.2363V22.041H50.2973V22.2855C50.2973 23.7055 51.4239 24.2449 53.2612 24.2449H53.6782C55.6867 24.2449 56.5681 23.7547 56.5681 22.7744C56.5681 21.6985 55.5637 21.3295 52.6983 20.9623C49.3186 20.5466 47.4324 19.6897 47.4324 17.3622V17.191C47.4324 14.8888 49.7347 13.5165 53.1884 13.5165H53.6037Z" fill="white"/>
<path d="M65.9687 10.2592V13.7368H72.3372V16.0642H65.9687V21.9666C65.9687 23.2657 66.6304 23.9751 67.8549 23.9751H68.271C69.4957 23.9751 70.1335 23.2657 70.1335 21.9666V20.9863H72.9244V21.9666C72.9244 25.0776 71.0143 26.4009 68.2964 26.4009H67.8786C65.0131 26.4009 62.8584 25.0776 62.8584 21.9666V16.0642H60.9233V13.7368H62.8584V10.2592H65.9687Z" fill="white"/>
<path d="M81.7876 13.5165C85.5098 13.5165 88.3513 15.4282 88.3513 19.3216V20.718H77.8198C77.8198 22.9948 79.1415 24.0974 81.3706 24.0974H81.7876C83.7962 24.0974 84.9468 23.3881 85.3145 22.089H88.2044C87.8378 24.686 85.7069 26.401 81.788 26.401H81.371C77.6488 26.401 74.8318 24.5146 74.8318 20.6198V19.3218C74.8318 15.4284 77.6242 13.5167 81.371 13.5167L81.7876 13.5165ZM77.8198 18.6108H85.3638C85.2156 16.7989 83.8201 15.795 81.7876 15.795H81.3706C79.2397 15.7946 77.966 16.775 77.8198 18.611V18.6108Z" fill="white"/>
<path d="M94.0764 8.03003V26.155H90.9668V8.03003H94.0764Z" fill="white"/>
<path d="M100.051 8.03003V26.155H96.9409V8.03003H100.051Z" fill="white"/>
<path d="M109.407 13.5163C113.423 13.5163 115.384 15.1822 115.384 17.9993V26.1542H112.248V24.5874H111.684C110.632 25.8614 109.21 26.4008 107.178 26.4008C104.582 26.4008 102.671 25.2238 102.671 22.6281C102.671 20.2024 104.313 18.8305 107.986 18.8305H112.249V17.9991C112.249 16.4554 111.17 15.77 109.382 15.77H108.966C107.3 15.77 106.101 16.4315 106.101 17.9745H103.014C103.014 15.1568 105.071 13.5161 108.966 13.5161L109.407 13.5163ZM105.757 22.3835C105.757 23.4609 106.614 24.0493 108.353 24.0493C110.214 24.0493 112.248 23.3372 112.248 21.2065V20.7176H108.329C106.516 20.7178 105.758 21.2809 105.758 22.383L105.757 22.3835Z" fill="white"/>
<path d="M123.974 13.5165C127.501 13.5165 129.828 14.9125 129.828 17.6558V17.9017H126.767V17.6319C126.767 16.1129 125.518 15.6487 123.974 15.6487H123.558C121.967 15.6487 120.888 16.0644 120.888 17.1657C120.888 18.267 121.918 18.5634 124.612 18.9059C128.531 19.4431 130 20.5214 130 22.554V22.7264C130 25.1018 127.795 26.401 124.049 26.401H123.631C119.909 26.401 117.631 25.1018 117.631 22.2363V22.041H120.668V22.2855C120.668 23.7055 121.794 24.2449 123.632 24.2449H124.049C126.057 24.2449 126.939 23.7547 126.939 22.7744C126.939 21.6985 125.935 21.3295 123.069 20.9623C119.69 20.5466 117.803 19.6897 117.803 17.3622V17.191C117.803 14.8888 120.105 13.5165 123.559 13.5165H123.974Z" fill="white"/>
<path d="M23.3927 37.1178H19.6362C14.4286 37.1178 9.43419 35.0492 5.75171 31.3669C2.06924 27.6846 0.000294773 22.6904 0 17.4827C0 4.88405 7.82726 0 17.4829 0C28.3271 0 36.9767 7.4199 37.118 19.6351V23.3917C36.9776 29.8858 33.2117 37.1178 23.3927 37.1178Z" fill="white"/>
<path d="M15.6188 28.3959C12.7192 27.6934 11.0432 26.1279 11.0432 26.1279L13.286 22.3716C13.286 22.3716 15.8961 24.5868 18.0874 24.5907C19.0613 24.5907 20.9173 24.4981 20.9217 22.6671C20.9217 21.2422 18.8303 20.5957 16.4995 19.4264C14.1487 18.2569 12.7718 16.4209 12.776 14.3773C12.7794 11.2712 15.1088 9.12587 17.7466 8.54735C17.9915 8.17033 18.345 7.87644 18.7604 7.70447C19.1758 7.53249 19.6335 7.49051 20.0733 7.58406C20.3812 7.64915 20.6718 7.77906 20.9257 7.96514C21.1795 8.15123 21.3909 8.38922 21.5456 8.66331C22.8721 8.95807 24.132 9.49746 25.2608 10.2538C25.2685 10.2579 26.0749 10.8048 26.0749 10.8048L23.4566 13.8219C23.4566 13.8219 21.5091 12.4609 19.4857 12.4609C18.3557 12.457 17.6178 12.8401 17.3142 13.4747H17.3101C17.2022 13.7072 17.1477 13.9609 17.1506 14.2172C17.1506 15.3102 19.0066 16.0969 21.2376 17.0548C23.4289 17.9848 25.8276 19.8447 25.8234 22.415C25.8165 26.4688 23.1428 28.2401 19.9408 28.6393C19.7132 28.9855 19.4031 29.2697 19.0384 29.4663C18.6737 29.6629 18.2658 29.7657 17.8514 29.7654C17.3891 29.7658 16.9356 29.6381 16.5415 29.3963C16.1474 29.1545 15.828 28.8082 15.6188 28.3959Z" fill="#F15A01"/>
<path d="M26.075 10.8041L23.4569 13.8212C23.4569 13.8212 21.5092 12.4602 19.4857 12.4602C18.3557 12.4563 17.6179 12.8394 17.3144 13.474H17.3105C20.0893 7.61079 24.9336 10.1731 25.2608 10.253C25.268 10.2572 26.075 10.8041 26.075 10.8041Z" fill="url(#paint0_linear)"/>
<defs>
<linearGradient id="paint0_linear" x1="10.8862" y1="5.16591" x2="16.1226" y2="19.8949" gradientUnits="userSpaceOnUse">
<stop offset="0.141" stop-color="#F5EFFF"/>
<stop offset="0.799" stop-color="#F15A01"/>
</linearGradient>
</defs>
</svg>
