<svg width="51" height="42" viewBox="0 0 51 42" fill="none" xmlns="http://www.w3.org/2000/svg">
<path fill-rule="evenodd" clip-rule="evenodd" d="M46.351 41.9511H4.11729C3.04163 41.9511 2.01003 41.5238 1.24943 40.7632C0.488826 40.0026 0.0615234 38.971 0.0615234 37.8954V4.79307C0.0615234 3.71741 0.488826 2.68581 1.24943 1.92521C2.01003 1.16461 3.04163 0.737305 4.11729 0.737305H46.351C47.4266 0.737305 48.4582 1.16461 49.2188 1.92521C49.9794 2.68581 50.4067 3.71741 50.4067 4.79307V37.8954C50.4067 38.971 49.9794 40.0026 49.2188 40.7632C48.4582 41.5238 47.4266 41.9511 46.351 41.9511ZM4.11729 3.89969C3.88035 3.89969 3.65312 3.99382 3.48557 4.16135C3.31803 4.3289 3.22391 4.55613 3.22391 4.79307V37.8954C3.22391 38.0127 3.24702 38.1289 3.29192 38.2372C3.33681 38.3456 3.40262 38.4441 3.48557 38.5271C3.56853 38.61 3.66702 38.6758 3.77541 38.7207C3.8838 38.7656 3.99997 38.7887 4.11729 38.7887H46.351C46.5865 38.7867 46.8118 38.6916 46.9776 38.5243C47.1434 38.357 47.2365 38.1309 47.2364 37.8954V4.79307C47.2365 4.55749 47.1434 4.33145 46.9776 4.16413C46.8118 3.99682 46.5865 3.90178 46.351 3.89969H4.11729ZM9.56815 31.3795H40.8046C41.0548 31.3866 41.3019 31.3233 41.5179 31.1969C41.7338 31.0704 41.9099 30.8858 42.0261 30.6642C42.1423 30.4425 42.1939 30.1927 42.175 29.9432C42.1561 29.6937 42.0676 29.4544 41.9194 29.2528L37.6106 23.4023C37.4982 23.2467 37.3535 23.1171 37.1864 23.0224C37.0193 22.9277 36.8338 22.8702 36.6425 22.8536C36.4511 22.8371 36.2585 22.8621 36.0777 22.9267C35.8968 22.9914 35.7321 23.0943 35.5946 23.2284L31.1673 27.4423L20.8895 13.4883C20.7615 13.3139 20.5932 13.1733 20.3989 13.0784C20.2046 12.9834 19.9901 12.9371 19.774 12.9433C19.5578 12.9495 19.3464 13.0081 19.1579 13.1141C18.9694 13.22 18.8094 13.3701 18.6916 13.5515L8.41388 29.316C8.28133 29.5201 8.20703 29.7565 8.199 29.9997C8.19097 30.2429 8.24952 30.4837 8.36831 30.6961C8.48711 30.9084 8.66166 31.0843 8.87311 31.2048C9.08456 31.3252 9.32488 31.3856 9.56815 31.3795ZM41.9863 13.5625C41.9863 16.1517 39.8873 18.2507 37.2981 18.2507C34.7088 18.2507 32.6098 16.1517 32.6098 13.5625C32.6098 10.9733 34.7088 8.87425 37.2981 8.87425C39.8873 8.87425 41.9863 10.9733 41.9863 13.5625Z" fill="#929497" fill-opacity="0.4"/>
</svg>
