<svg width="20" height="20" viewBox="0 0 20 20" fill="none" xmlns="http://www.w3.org/2000/svg">
<path d="M10.0002 12.3153C11.2787 12.3153 12.3152 11.2789 12.3152 10.0004C12.3152 8.72186 11.2787 7.68542 10.0002 7.68542C8.72173 7.68542 7.6853 8.72186 7.6853 10.0004C7.6853 11.2789 8.72173 12.3153 10.0002 12.3153Z" stroke="white" stroke-opacity="0.5" stroke-width="2" stroke-linecap="round" stroke-linejoin="round"/>
<path d="M10.0002 12.3153C11.2787 12.3153 12.3152 11.2789 12.3152 10.0004C12.3152 8.72186 11.2787 7.68542 10.0002 7.68542C8.72173 7.68542 7.6853 8.72186 7.6853 10.0004C7.6853 11.2789 8.72173 12.3153 10.0002 12.3153Z" stroke="white" stroke-opacity="0.5" stroke-width="2" stroke-linecap="round" stroke-linejoin="round"/>
<path d="M15.7102 12.3151C15.6075 12.5478 15.5769 12.806 15.6222 13.0563C15.6676 13.3066 15.787 13.5376 15.9649 13.7195L16.0112 13.7658C16.1546 13.9091 16.2685 14.0793 16.3461 14.2667C16.4238 14.454 16.4638 14.6549 16.4638 14.8577C16.4638 15.0605 16.4238 15.2613 16.3461 15.4487C16.2685 15.636 16.1546 15.8062 16.0112 15.9495C15.8678 16.093 15.6976 16.2069 15.5103 16.2845C15.3229 16.3622 15.1221 16.4022 14.9193 16.4022C14.7165 16.4022 14.5156 16.3622 14.3283 16.2845C14.1409 16.2069 13.9707 16.093 13.8274 15.9495L13.7811 15.9032C13.5992 15.7254 13.3683 15.606 13.1179 15.5606C12.8676 15.5152 12.6094 15.5459 12.3767 15.6486C12.1485 15.7464 11.9538 15.9088 11.8167 16.1159C11.6796 16.3229 11.6061 16.5655 11.6051 16.8138V16.945C11.6051 17.3543 11.4425 17.7468 11.153 18.0362C10.8636 18.3257 10.4711 18.4883 10.0618 18.4883C9.65247 18.4883 9.25993 18.3257 8.97051 18.0362C8.68109 17.7468 8.51849 17.3543 8.51849 16.945V16.8755C8.51251 16.6201 8.42984 16.3724 8.28122 16.1646C8.13259 15.9568 7.92489 15.7985 7.68511 15.7103C7.45237 15.6076 7.1942 15.577 6.94388 15.6224C6.69356 15.6677 6.46258 15.7871 6.28072 15.965L6.23442 16.0113C6.09109 16.1548 5.92089 16.2686 5.73353 16.3463C5.54618 16.4239 5.34536 16.4639 5.14255 16.4639C4.93974 16.4639 4.73891 16.4239 4.55156 16.3463C4.36421 16.2686 4.194 16.1548 4.05067 16.0113C3.90718 15.8679 3.79335 15.6977 3.71569 15.5104C3.63802 15.323 3.59805 15.1222 3.59805 14.9194C3.59805 14.7166 3.63802 14.5158 3.71569 14.3284C3.79335 14.1411 3.90718 13.9709 4.05067 13.8275L4.09697 13.7812C4.27486 13.5994 4.3942 13.3684 4.43958 13.1181C4.48497 12.8677 4.45433 12.6096 4.35161 12.3768C4.2538 12.1486 4.09138 11.954 3.88436 11.8169C3.67733 11.6798 3.43473 11.6062 3.18643 11.6052H3.05525C2.64595 11.6052 2.2534 11.4426 1.96398 11.1532C1.67456 10.8637 1.51196 10.4712 1.51196 10.0619C1.51196 9.65259 1.67456 9.26005 1.96398 8.97063C2.2534 8.68121 2.64595 8.51861 3.05525 8.51861H3.1247C3.38011 8.51264 3.62781 8.42996 3.83561 8.28134C4.04341 8.13271 4.20169 7.92501 4.28988 7.68524C4.3926 7.4525 4.42324 7.19432 4.37785 6.944C4.33246 6.69369 4.21313 6.4627 4.03524 6.28084L3.98894 6.23455C3.84545 6.09122 3.73162 5.92101 3.65395 5.73366C3.57629 5.5463 3.53631 5.34548 3.53631 5.14267C3.53631 4.93986 3.57629 4.73903 3.65395 4.55168C3.73162 4.36433 3.84545 4.19412 3.98894 4.05079C4.13227 3.9073 4.30248 3.79347 4.48983 3.71581C4.67718 3.63814 4.878 3.59817 5.08082 3.59817C5.28363 3.59817 5.48445 3.63814 5.6718 3.71581C5.85916 3.79347 6.02936 3.9073 6.17269 4.05079L6.21899 4.09709C6.40085 4.27498 6.63183 4.39432 6.88215 4.43971C7.13247 4.48509 7.39064 4.45445 7.62338 4.35173H7.68511C7.91334 4.25392 8.10799 4.0915 8.24509 3.88448C8.38219 3.67745 8.45577 3.43486 8.45676 3.18655V3.05537C8.45676 2.64607 8.61935 2.25353 8.90878 1.9641C9.1982 1.67468 9.59074 1.51208 10 1.51208C10.4094 1.51208 10.8019 1.67468 11.0913 1.9641C11.3807 2.25353 11.5433 2.64607 11.5433 3.05537V3.12482C11.5443 3.37313 11.6179 3.61572 11.755 3.82275C11.8921 4.02977 12.0867 4.19219 12.315 4.29C12.5477 4.39272 12.8059 4.42336 13.0562 4.37797C13.3065 4.33259 13.5375 4.21325 13.7194 4.03536L13.7657 3.98906C13.909 3.84557 14.0792 3.73174 14.2666 3.65408C14.4539 3.57641 14.6547 3.53644 14.8575 3.53644C15.0604 3.53644 15.2612 3.57641 15.4485 3.65408C15.6359 3.73174 15.8061 3.84557 15.9494 3.98906C16.0929 4.13239 16.2067 4.3026 16.2844 4.48995C16.3621 4.6773 16.402 4.87813 16.402 5.08094C16.402 5.28375 16.3621 5.48457 16.2844 5.67192C16.2067 5.85928 16.0929 6.02948 15.9494 6.17281L15.9031 6.21911C15.7252 6.40097 15.6059 6.63195 15.5605 6.88227C15.5151 7.13259 15.5458 7.39076 15.6485 7.6235V7.68524C15.7463 7.91346 15.9087 8.10811 16.1157 8.24521C16.3228 8.38231 16.5654 8.45589 16.8137 8.45688H16.9448C17.3541 8.45688 17.7467 8.61948 18.0361 8.9089C18.3255 9.19832 18.4881 9.59086 18.4881 10.0002C18.4881 10.4095 18.3255 10.802 18.0361 11.0914C17.7467 11.3809 17.3541 11.5435 16.9448 11.5435H16.8754C16.6271 11.5444 16.3845 11.618 16.1775 11.7551C15.9704 11.8922 15.808 12.0869 15.7102 12.3151V12.3151Z" stroke="white" stroke-opacity="0.5" stroke-width="2" stroke-linecap="round" stroke-linejoin="round"/>
</svg>
