<svg width="49" height="50" viewBox="0 0 49 50" fill="none" xmlns="http://www.w3.org/2000/svg">
<path fill-rule="evenodd" clip-rule="evenodd" d="M30.4523 3.23657C27.0957 -0.120113 21.6534 -0.12012 18.2967 3.23657L2.51752 19.0158C-0.839168 22.3724 -0.839175 27.8147 2.51751 31.1714L18.2967 46.9506C21.6534 50.3073 27.0957 50.3073 30.4523 46.9506L46.2315 31.1714C49.5882 27.8147 49.5882 22.3725 46.2315 19.0158L30.4523 3.23657ZM24.3745 36.6973C30.7831 36.6973 35.9782 31.5021 35.9782 25.0936C35.9782 18.685 30.7831 13.4899 24.3745 13.4899C17.966 13.4899 12.7708 18.685 12.7708 25.0936C12.7708 31.5021 17.966 36.6973 24.3745 36.6973Z" fill="white"/>
<circle cx="24.4967" cy="25.2158" r="7.7358" stroke="white" stroke-opacity="0.5" stroke-width="2.5786"/>
<circle cx="24.4967" cy="25.2157" r="3.8679" fill="white" fill-opacity="0.8"/>
</svg>
