<svg width="24" height="24" viewBox="0 0 24 24" fill="none" xmlns="http://www.w3.org/2000/svg">
<path opacity="0.4" d="M16.191 2H7.81C4.77 2 3 3.78 3 6.83V17.16C3 20.26 4.77 22 7.81 22H16.191C19.28 22 21 20.26 21 17.16V6.83C21 3.78 19.28 2 16.191 2Z" fill="white" fill-opacity="0.5"/>
<path fill-rule="evenodd" clip-rule="evenodd" d="M8.08002 6.64999V6.65999C7.64902 6.65999 7.30002 7.00999 7.30002 7.43999C7.30002 7.86999 7.64902 8.21999 8.08002 8.21999H11.069C11.5 8.21999 11.85 7.86999 11.85 7.42899C11.85 6.99999 11.5 6.64999 11.069 6.64999H8.08002ZM15.92 12.74H8.08002C7.64902 12.74 7.30002 12.39 7.30002 11.96C7.30002 11.53 7.64902 11.179 8.08002 11.179H15.92C16.35 11.179 16.7 11.53 16.7 11.96C16.7 12.39 16.35 12.74 15.92 12.74ZM15.71 17.574H7.87C7.57 17.614 7.28 17.464 7.12 17.214C6.96 16.954 6.96 16.624 7.12 16.374C7.28 16.114 7.57 15.974 7.87 16.004H15.71C16.109 16.044 16.41 16.384 16.41 16.794C16.41 17.193 16.109 17.534 15.71 17.574Z" fill="white" fill-opacity="0.5"/>
</svg>
