<svg xmlns="http://www.w3.org/2000/svg" xmlns:xlink="http://www.w3.org/1999/xlink" width="261" height="85" viewBox="0 0 261 85"><defs><style>.a,.b{fill:#fff;}.b{stroke:#707070;}.c,.h{fill:none;}.d{clip-path:url(#a);}.e{clip-path:url(#b);}.f{clip-path:url(#c);}.g,.i{fill:#cbd9ff;}.h{stroke:#cbd9ff;stroke-width:2px;}.i{stroke:#cbedff;stroke-width:4px;}.j{stroke:none;}</style><clipPath id="a"><path class="a" d="M0,85H261V0H0Z" transform="translate(828 3884)"/></clipPath><clipPath id="b"><circle class="b" cx="83.5" cy="83.5" r="83.5" transform="translate(308 3189)"/></clipPath><clipPath id="c"><rect class="c" width="327" height="185"/></clipPath></defs><g class="d" transform="translate(-828 -3884)"><g class="e" transform="translate(569 717)"><g class="f" transform="matrix(0.985, 0.174, -0.174, 0.985, 280.546, 3164.014)"><g transform="translate(-440 -3347)"><circle class="g" cx="3.5" cy="3.5" r="3.5" transform="translate(440 3347)"/></g><g transform="translate(-429 -3347)"><circle class="g" cx="3.5" cy="3.5" r="3.5" transform="translate(440 3347)"/></g><g transform="translate(-418 -3347)"><circle class="g" cx="3.5" cy="3.5" r="3.5" transform="translate(440 3347)"/></g><g transform="translate(-407 -3347)"><circle class="g" cx="3.5" cy="3.5" r="3.5" transform="translate(440 3347)"/></g><g transform="translate(-396 -3347)"><circle class="g" cx="3.5" cy="3.5" r="3.5" transform="translate(440 3347)"/></g><g transform="translate(-385 -3347)"><circle class="g" cx="3.5" cy="3.5" r="3.5" transform="translate(440 3347)"/></g><g transform="translate(-374 -3347)"><circle class="g" cx="3.5" cy="3.5" r="3.5" transform="translate(440 3347)"/></g><g transform="translate(-363 -3347)"><circle class="g" cx="3.5" cy="3.5" r="3.5" transform="translate(440 3347)"/></g><g transform="translate(-352 -3347)"><circle class="g" cx="3.5" cy="3.5" r="3.5" transform="translate(440 3347)"/></g><g transform="translate(-341 -3347)"><circle class="g" cx="3.5" cy="3.5" r="3.5" transform="translate(440 3347)"/></g><g transform="translate(-330 -3347)"><circle class="g" cx="3.5" cy="3.5" r="3.5" transform="translate(440 3347)"/></g><g transform="translate(-319 -3347)"><circle class="g" cx="3.5" cy="3.5" r="3.5" transform="translate(440 3347)"/></g><g transform="translate(-308 -3347)"><circle class="g" cx="3.5" cy="3.5" r="3.5" transform="translate(440 3347)"/></g><g transform="translate(-297 -3347)"><circle class="g" cx="3.5" cy="3.5" r="3.5" transform="translate(440 3347)"/></g><g transform="translate(-286 -3347)"><circle class="g" cx="3.5" cy="3.5" r="3.5" transform="translate(440 3347)"/></g><g transform="translate(-275 -3347)"><circle class="g" cx="3.5" cy="3.5" r="3.5" transform="translate(440 3347)"/></g><g transform="translate(-264 -3347)"><circle class="g" cx="3.5" cy="3.5" r="3.5" transform="translate(440 3347)"/></g><g transform="translate(-253 -3347)"><circle class="g" cx="3.5" cy="3.5" r="3.5" transform="translate(440 3347)"/></g><g transform="translate(-242 -3347)"><circle class="g" cx="3.5" cy="3.5" r="3.5" transform="translate(440 3347)"/></g><g transform="translate(-231 -3347)"><circle class="g" cx="3.5" cy="3.5" r="3.5" transform="translate(440 3347)"/></g><g transform="translate(-220 -3347)"><circle class="g" cx="3.5" cy="3.5" r="3.5" transform="translate(440 3347)"/></g><g transform="translate(-209 -3347)"><circle class="g" cx="3.5" cy="3.5" r="3.5" transform="translate(440 3347)"/></g><g transform="translate(-198 -3347)"><circle class="g" cx="3.5" cy="3.5" r="3.5" transform="translate(440 3347)"/></g><g transform="translate(-187 -3347)"><circle class="g" cx="3.5" cy="3.5" r="3.5" transform="translate(440 3347)"/></g><g transform="translate(-176 -3347)"><circle class="g" cx="3.5" cy="3.5" r="3.5" transform="translate(440 3347)"/></g><g transform="translate(-165 -3347)"><circle class="g" cx="3.5" cy="3.5" r="3.5" transform="translate(440 3347)"/></g><g transform="translate(-154 -3347)"><circle class="g" cx="3.5" cy="3.5" r="3.5" transform="translate(440 3347)"/></g><g transform="translate(-143 -3347)"><circle class="g" cx="3.5" cy="3.5" r="3.5" transform="translate(440 3347)"/></g><g transform="translate(-132 -3347)"><circle class="g" cx="3.5" cy="3.5" r="3.5" transform="translate(440 3347)"/></g><g transform="translate(-121 -3347)"><circle class="g" cx="3.5" cy="3.5" r="3.5" transform="translate(440 3347)"/></g><g transform="translate(-440 -3336)"><circle class="g" cx="3.5" cy="3.5" r="3.5" transform="translate(440 3347)"/></g><g transform="translate(-429 -3336)"><circle class="g" cx="3.5" cy="3.5" r="3.5" transform="translate(440 3347)"/></g><g transform="translate(-418 -3336)"><circle class="g" cx="3.5" cy="3.5" r="3.5" transform="translate(440 3347)"/></g><g transform="translate(-407 -3336)"><circle class="g" cx="3.5" cy="3.5" r="3.5" transform="translate(440 3347)"/></g><g transform="translate(-396 -3336)"><circle class="g" cx="3.5" cy="3.5" r="3.5" transform="translate(440 3347)"/></g><g transform="translate(-385 -3336)"><circle class="g" cx="3.5" cy="3.5" r="3.5" transform="translate(440 3347)"/></g><g transform="translate(-374 -3336)"><circle class="g" cx="3.5" cy="3.5" r="3.5" transform="translate(440 3347)"/></g><g transform="translate(-363 -3336)"><circle class="g" cx="3.5" cy="3.5" r="3.5" transform="translate(440 3347)"/></g><g transform="translate(-352 -3336)"><circle class="g" cx="3.5" cy="3.5" r="3.5" transform="translate(440 3347)"/></g><g transform="translate(-341 -3336)"><circle class="g" cx="3.5" cy="3.5" r="3.5" transform="translate(440 3347)"/></g><g transform="translate(-330 -3336)"><circle class="g" cx="3.5" cy="3.5" r="3.5" transform="translate(440 3347)"/></g><g transform="translate(-319 -3336)"><circle class="g" cx="3.5" cy="3.5" r="3.5" transform="translate(440 3347)"/></g><g transform="translate(-308 -3336)"><circle class="g" cx="3.5" cy="3.5" r="3.5" transform="translate(440 3347)"/></g><g transform="translate(-297 -3336)"><circle class="g" cx="3.5" cy="3.5" r="3.5" transform="translate(440 3347)"/></g><g transform="translate(-286 -3336)"><circle class="g" cx="3.5" cy="3.5" r="3.5" transform="translate(440 3347)"/></g><g transform="translate(-275 -3336)"><circle class="g" cx="3.5" cy="3.5" r="3.5" transform="translate(440 3347)"/></g><g transform="translate(-264 -3336)"><circle class="g" cx="3.5" cy="3.5" r="3.5" transform="translate(440 3347)"/></g><g transform="translate(-253 -3336)"><circle class="g" cx="3.5" cy="3.5" r="3.5" transform="translate(440 3347)"/></g><g transform="translate(-242 -3336)"><circle class="g" cx="3.5" cy="3.5" r="3.5" transform="translate(440 3347)"/></g><g transform="translate(-231 -3336)"><circle class="g" cx="3.5" cy="3.5" r="3.5" transform="translate(440 3347)"/></g><g transform="translate(-220 -3336)"><circle class="g" cx="3.5" cy="3.5" r="3.5" transform="translate(440 3347)"/></g><g transform="translate(-209 -3336)"><circle class="g" cx="3.5" cy="3.5" r="3.5" transform="translate(440 3347)"/></g><g transform="translate(-198 -3336)"><circle class="g" cx="3.5" cy="3.5" r="3.5" transform="translate(440 3347)"/></g><g transform="translate(-187 -3336)"><circle class="g" cx="3.5" cy="3.5" r="3.5" transform="translate(440 3347)"/></g><g transform="translate(-176 -3336)"><circle class="g" cx="3.5" cy="3.5" r="3.5" transform="translate(440 3347)"/></g><g transform="translate(-165 -3336)"><circle class="g" cx="3.5" cy="3.5" r="3.5" transform="translate(440 3347)"/></g><g transform="translate(-154 -3336)"><circle class="g" cx="3.5" cy="3.5" r="3.5" transform="translate(440 3347)"/></g><g transform="translate(-143 -3336)"><circle class="g" cx="3.5" cy="3.5" r="3.5" transform="translate(440 3347)"/></g><g transform="translate(-132 -3336)"><circle class="g" cx="3.5" cy="3.5" r="3.5" transform="translate(440 3347)"/></g><g transform="translate(-121 -3336)"><circle class="g" cx="3.5" cy="3.5" r="3.5" transform="translate(440 3347)"/></g><g transform="translate(-440 -3325)"><circle class="g" cx="3.5" cy="3.5" r="3.5" transform="translate(440 3347)"/></g><g transform="translate(-429 -3325)"><circle class="g" cx="3.5" cy="3.5" r="3.5" transform="translate(440 3347)"/></g><g transform="translate(-418 -3325)"><circle class="g" cx="3.5" cy="3.5" r="3.5" transform="translate(440 3347)"/></g><g transform="translate(-407 -3325)"><circle class="g" cx="3.5" cy="3.5" r="3.5" transform="translate(440 3347)"/></g><g transform="translate(-396 -3325)"><circle class="g" cx="3.5" cy="3.5" r="3.5" transform="translate(440 3347)"/></g><g transform="translate(-385 -3325)"><circle class="g" cx="3.5" cy="3.5" r="3.5" transform="translate(440 3347)"/></g><g transform="translate(-374 -3325)"><circle class="g" cx="3.5" cy="3.5" r="3.5" transform="translate(440 3347)"/></g><g transform="translate(-363 -3325)"><circle class="g" cx="3.5" cy="3.5" r="3.5" transform="translate(440 3347)"/></g><g transform="translate(-352 -3325)"><circle class="g" cx="3.5" cy="3.5" r="3.5" transform="translate(440 3347)"/></g><g transform="translate(-341 -3325)"><circle class="g" cx="3.5" cy="3.5" r="3.5" transform="translate(440 3347)"/></g><g transform="translate(-330 -3325)"><circle class="g" cx="3.5" cy="3.5" r="3.5" transform="translate(440 3347)"/></g><g transform="translate(-319 -3325)"><circle class="g" cx="3.5" cy="3.5" r="3.5" transform="translate(440 3347)"/></g><g transform="translate(-308 -3325)"><circle class="g" cx="3.5" cy="3.5" r="3.5" transform="translate(440 3347)"/></g><g transform="translate(-297 -3325)"><circle class="g" cx="3.5" cy="3.5" r="3.5" transform="translate(440 3347)"/></g><g transform="translate(-286 -3325)"><circle class="g" cx="3.5" cy="3.5" r="3.5" transform="translate(440 3347)"/></g><g transform="translate(-275 -3325)"><circle class="g" cx="3.5" cy="3.5" r="3.5" transform="translate(440 3347)"/></g><g transform="translate(-264 -3325)"><circle class="g" cx="3.5" cy="3.5" r="3.5" transform="translate(440 3347)"/></g><g transform="translate(-253 -3325)"><circle class="g" cx="3.5" cy="3.5" r="3.5" transform="translate(440 3347)"/></g><g transform="translate(-242 -3325)"><circle class="g" cx="3.5" cy="3.5" r="3.5" transform="translate(440 3347)"/></g><g transform="translate(-231 -3325)"><circle class="g" cx="3.5" cy="3.5" r="3.5" transform="translate(440 3347)"/></g><g transform="translate(-220 -3325)"><circle class="g" cx="3.5" cy="3.5" r="3.5" transform="translate(440 3347)"/></g><g transform="translate(-209 -3325)"><circle class="g" cx="3.5" cy="3.5" r="3.5" transform="translate(440 3347)"/></g><g transform="translate(-198 -3325)"><circle class="g" cx="3.5" cy="3.5" r="3.5" transform="translate(440 3347)"/></g><g transform="translate(-187 -3325)"><circle class="g" cx="3.5" cy="3.5" r="3.5" transform="translate(440 3347)"/></g><g transform="translate(-176 -3325)"><circle class="g" cx="3.5" cy="3.5" r="3.5" transform="translate(440 3347)"/></g><g transform="translate(-165 -3325)"><circle class="g" cx="3.5" cy="3.5" r="3.5" transform="translate(440 3347)"/></g><g transform="translate(-154 -3325)"><circle class="g" cx="3.5" cy="3.5" r="3.5" transform="translate(440 3347)"/></g><g transform="translate(-143 -3325)"><circle class="g" cx="3.5" cy="3.5" r="3.5" transform="translate(440 3347)"/></g><g transform="translate(-132 -3325)"><circle class="g" cx="3.5" cy="3.5" r="3.5" transform="translate(440 3347)"/></g><g transform="translate(-121 -3325)"><circle class="g" cx="3.5" cy="3.5" r="3.5" transform="translate(440 3347)"/></g><g transform="translate(-440 -3314)"><circle class="g" cx="3.5" cy="3.5" r="3.5" transform="translate(440 3347)"/></g><g transform="translate(-429 -3314)"><circle class="g" cx="3.5" cy="3.5" r="3.5" transform="translate(440 3347)"/></g><g transform="translate(-418 -3314)"><circle class="g" cx="3.5" cy="3.5" r="3.5" transform="translate(440 3347)"/></g><g transform="translate(-407 -3314)"><circle class="g" cx="3.5" cy="3.5" r="3.5" transform="translate(440 3347)"/></g><g transform="translate(-396 -3314)"><circle class="g" cx="3.5" cy="3.5" r="3.5" transform="translate(440 3347)"/></g><g transform="translate(-385 -3314)"><circle class="g" cx="3.5" cy="3.5" r="3.5" transform="translate(440 3347)"/></g><g transform="translate(-374 -3314)"><circle class="g" cx="3.5" cy="3.5" r="3.5" transform="translate(440 3347)"/></g><g transform="translate(-363 -3314)"><circle class="g" cx="3.5" cy="3.5" r="3.5" transform="translate(440 3347)"/></g><g transform="translate(-352 -3314)"><circle class="g" cx="3.5" cy="3.5" r="3.5" transform="translate(440 3347)"/></g><g transform="translate(-341 -3314)"><circle class="g" cx="3.5" cy="3.5" r="3.5" transform="translate(440 3347)"/></g><g transform="translate(-330 -3314)"><circle class="g" cx="3.5" cy="3.5" r="3.5" transform="translate(440 3347)"/></g><g transform="translate(-319 -3314)"><circle class="g" cx="3.5" cy="3.5" r="3.5" transform="translate(440 3347)"/></g><g transform="translate(-308 -3314)"><circle class="g" cx="3.5" cy="3.5" r="3.5" transform="translate(440 3347)"/></g><g transform="translate(-297 -3314)"><circle class="g" cx="3.5" cy="3.5" r="3.5" transform="translate(440 3347)"/></g><g transform="translate(-286 -3314)"><circle class="g" cx="3.5" cy="3.5" r="3.5" transform="translate(440 3347)"/></g><g transform="translate(-275 -3314)"><circle class="g" cx="3.5" cy="3.5" r="3.5" transform="translate(440 3347)"/></g><g transform="translate(-264 -3314)"><circle class="g" cx="3.5" cy="3.5" r="3.5" transform="translate(440 3347)"/></g><g transform="translate(-253 -3314)"><circle class="g" cx="3.5" cy="3.5" r="3.5" transform="translate(440 3347)"/></g><g transform="translate(-242 -3314)"><circle class="g" cx="3.5" cy="3.5" r="3.5" transform="translate(440 3347)"/></g><g transform="translate(-231 -3314)"><circle class="g" cx="3.5" cy="3.5" r="3.5" transform="translate(440 3347)"/></g><g transform="translate(-220 -3314)"><circle class="g" cx="3.5" cy="3.5" r="3.5" transform="translate(440 3347)"/></g><g transform="translate(-209 -3314)"><circle class="g" cx="3.5" cy="3.5" r="3.5" transform="translate(440 3347)"/></g><g transform="translate(-198 -3314)"><circle class="g" cx="3.5" cy="3.5" r="3.5" transform="translate(440 3347)"/></g><g transform="translate(-187 -3314)"><circle class="g" cx="3.5" cy="3.5" r="3.5" transform="translate(440 3347)"/></g><g transform="translate(-176 -3314)"><circle class="g" cx="3.5" cy="3.5" r="3.5" transform="translate(440 3347)"/></g><g transform="translate(-165 -3314)"><circle class="g" cx="3.5" cy="3.5" r="3.5" transform="translate(440 3347)"/></g><g transform="translate(-154 -3314)"><circle class="g" cx="3.5" cy="3.5" r="3.5" transform="translate(440 3347)"/></g><g transform="translate(-143 -3314)"><circle class="g" cx="3.5" cy="3.5" r="3.5" transform="translate(440 3347)"/></g><g transform="translate(-132 -3314)"><circle class="g" cx="3.5" cy="3.5" r="3.5" transform="translate(440 3347)"/></g><g transform="translate(-121 -3314)"><circle class="g" cx="3.5" cy="3.5" r="3.5" transform="translate(440 3347)"/></g><g transform="translate(-440 -3303)"><circle class="g" cx="3.5" cy="3.5" r="3.5" transform="translate(440 3347)"/></g><g transform="translate(-429 -3303)"><circle class="g" cx="3.5" cy="3.5" r="3.5" transform="translate(440 3347)"/></g><g transform="translate(-418 -3303)"><circle class="g" cx="3.5" cy="3.5" r="3.5" transform="translate(440 3347)"/></g><g transform="translate(-407 -3303)"><circle class="g" cx="3.5" cy="3.5" r="3.5" transform="translate(440 3347)"/></g><g transform="translate(-396 -3303)"><circle class="g" cx="3.5" cy="3.5" r="3.5" transform="translate(440 3347)"/></g><g transform="translate(-385 -3303)"><circle class="g" cx="3.5" cy="3.5" r="3.5" transform="translate(440 3347)"/></g><g transform="translate(-374 -3303)"><circle class="g" cx="3.5" cy="3.5" r="3.5" transform="translate(440 3347)"/></g><g transform="translate(-363 -3303)"><circle class="g" cx="3.5" cy="3.5" r="3.5" transform="translate(440 3347)"/></g><g transform="translate(-352 -3303)"><circle class="g" cx="3.5" cy="3.5" r="3.5" transform="translate(440 3347)"/></g><g transform="translate(-341 -3303)"><circle class="g" cx="3.5" cy="3.5" r="3.5" transform="translate(440 3347)"/></g><g transform="translate(-330 -3303)"><circle class="g" cx="3.5" cy="3.5" r="3.5" transform="translate(440 3347)"/></g><g transform="translate(-319 -3303)"><circle class="g" cx="3.5" cy="3.5" r="3.5" transform="translate(440 3347)"/></g><g transform="translate(-308 -3303)"><circle class="g" cx="3.5" cy="3.5" r="3.5" transform="translate(440 3347)"/></g><g transform="translate(-297 -3303)"><circle class="g" cx="3.5" cy="3.5" r="3.5" transform="translate(440 3347)"/></g><g transform="translate(-286 -3303)"><circle class="g" cx="3.5" cy="3.5" r="3.5" transform="translate(440 3347)"/></g><g transform="translate(-275 -3303)"><circle class="g" cx="3.5" cy="3.5" r="3.5" transform="translate(440 3347)"/></g><g transform="translate(-264 -3303)"><circle class="g" cx="3.5" cy="3.5" r="3.5" transform="translate(440 3347)"/></g><g transform="translate(-253 -3303)"><circle class="g" cx="3.5" cy="3.5" r="3.5" transform="translate(440 3347)"/></g><g transform="translate(-242 -3303)"><circle class="g" cx="3.5" cy="3.5" r="3.5" transform="translate(440 3347)"/></g><g transform="translate(-231 -3303)"><circle class="g" cx="3.5" cy="3.5" r="3.5" transform="translate(440 3347)"/></g><g transform="translate(-220 -3303)"><circle class="g" cx="3.5" cy="3.5" r="3.5" transform="translate(440 3347)"/></g><g transform="translate(-209 -3303)"><circle class="g" cx="3.5" cy="3.5" r="3.5" transform="translate(440 3347)"/></g><g transform="translate(-198 -3303)"><circle class="g" cx="3.5" cy="3.5" r="3.5" transform="translate(440 3347)"/></g><g transform="translate(-187 -3303)"><circle class="g" cx="3.5" cy="3.5" r="3.5" transform="translate(440 3347)"/></g><g transform="translate(-176 -3303)"><circle class="g" cx="3.5" cy="3.5" r="3.5" transform="translate(440 3347)"/></g><g transform="translate(-165 -3303)"><circle class="g" cx="3.5" cy="3.5" r="3.5" transform="translate(440 3347)"/></g><g transform="translate(-154 -3303)"><circle class="g" cx="3.5" cy="3.5" r="3.5" transform="translate(440 3347)"/></g><g transform="translate(-143 -3303)"><circle class="g" cx="3.5" cy="3.5" r="3.5" transform="translate(440 3347)"/></g><g transform="translate(-132 -3303)"><circle class="g" cx="3.5" cy="3.5" r="3.5" transform="translate(440 3347)"/></g><g transform="translate(-121 -3303)"><circle class="g" cx="3.5" cy="3.5" r="3.5" transform="translate(440 3347)"/></g><g transform="translate(-440 -3292)"><circle class="g" cx="3.5" cy="3.5" r="3.5" transform="translate(440 3347)"/></g><g transform="translate(-429 -3292)"><circle class="g" cx="3.5" cy="3.5" r="3.5" transform="translate(440 3347)"/></g><g transform="translate(-418 -3292)"><circle class="g" cx="3.5" cy="3.5" r="3.5" transform="translate(440 3347)"/></g><g transform="translate(-407 -3292)"><circle class="g" cx="3.5" cy="3.5" r="3.5" transform="translate(440 3347)"/></g><g transform="translate(-396 -3292)"><circle class="g" cx="3.5" cy="3.5" r="3.5" transform="translate(440 3347)"/></g><g transform="translate(-385 -3292)"><circle class="g" cx="3.5" cy="3.5" r="3.5" transform="translate(440 3347)"/></g><g transform="translate(-374 -3292)"><circle class="g" cx="3.5" cy="3.5" r="3.5" transform="translate(440 3347)"/></g><g transform="translate(-363 -3292)"><circle class="g" cx="3.5" cy="3.5" r="3.5" transform="translate(440 3347)"/></g><g transform="translate(-352 -3292)"><circle class="g" cx="3.5" cy="3.5" r="3.5" transform="translate(440 3347)"/></g><g transform="translate(-341 -3292)"><circle class="g" cx="3.5" cy="3.5" r="3.5" transform="translate(440 3347)"/></g><g transform="translate(-330 -3292)"><circle class="g" cx="3.5" cy="3.5" r="3.5" transform="translate(440 3347)"/></g><g transform="translate(-319 -3292)"><circle class="g" cx="3.5" cy="3.5" r="3.5" transform="translate(440 3347)"/></g><g transform="translate(-308 -3292)"><circle class="g" cx="3.5" cy="3.5" r="3.5" transform="translate(440 3347)"/></g><g transform="translate(-297 -3292)"><circle class="g" cx="3.5" cy="3.5" r="3.5" transform="translate(440 3347)"/></g><g transform="translate(-286 -3292)"><circle class="g" cx="3.5" cy="3.5" r="3.5" transform="translate(440 3347)"/></g><g transform="translate(-275 -3292)"><circle class="g" cx="3.5" cy="3.5" r="3.5" transform="translate(440 3347)"/></g><g transform="translate(-264 -3292)"><circle class="g" cx="3.5" cy="3.5" r="3.5" transform="translate(440 3347)"/></g><g transform="translate(-253 -3292)"><circle class="g" cx="3.5" cy="3.5" r="3.5" transform="translate(440 3347)"/></g><g transform="translate(-242 -3292)"><circle class="g" cx="3.5" cy="3.5" r="3.5" transform="translate(440 3347)"/></g><g transform="translate(-231 -3292)"><circle class="g" cx="3.5" cy="3.5" r="3.5" transform="translate(440 3347)"/></g><g transform="translate(-220 -3292)"><circle class="g" cx="3.5" cy="3.5" r="3.5" transform="translate(440 3347)"/></g><g transform="translate(-209 -3292)"><circle class="g" cx="3.5" cy="3.5" r="3.5" transform="translate(440 3347)"/></g><g transform="translate(-198 -3292)"><circle class="g" cx="3.5" cy="3.5" r="3.5" transform="translate(440 3347)"/></g><g transform="translate(-187 -3292)"><circle class="g" cx="3.5" cy="3.5" r="3.5" transform="translate(440 3347)"/></g><g transform="translate(-176 -3292)"><circle class="g" cx="3.5" cy="3.5" r="3.5" transform="translate(440 3347)"/></g><g transform="translate(-165 -3292)"><circle class="g" cx="3.5" cy="3.5" r="3.5" transform="translate(440 3347)"/></g><g transform="translate(-154 -3292)"><circle class="g" cx="3.5" cy="3.5" r="3.5" transform="translate(440 3347)"/></g><g transform="translate(-143 -3292)"><circle class="g" cx="3.5" cy="3.5" r="3.5" transform="translate(440 3347)"/></g><g transform="translate(-132 -3292)"><circle class="g" cx="3.5" cy="3.5" r="3.5" transform="translate(440 3347)"/></g><g transform="translate(-121 -3292)"><circle class="g" cx="3.5" cy="3.5" r="3.5" transform="translate(440 3347)"/></g><g transform="translate(-440 -3281)"><circle class="g" cx="3.5" cy="3.5" r="3.5" transform="translate(440 3347)"/></g><g transform="translate(-429 -3281)"><circle class="g" cx="3.5" cy="3.5" r="3.5" transform="translate(440 3347)"/></g><g transform="translate(-418 -3281)"><circle class="g" cx="3.5" cy="3.5" r="3.5" transform="translate(440 3347)"/></g><g transform="translate(-407 -3281)"><circle class="g" cx="3.5" cy="3.5" r="3.5" transform="translate(440 3347)"/></g><g transform="translate(-396 -3281)"><circle class="g" cx="3.5" cy="3.5" r="3.5" transform="translate(440 3347)"/></g><g transform="translate(-385 -3281)"><circle class="g" cx="3.5" cy="3.5" r="3.5" transform="translate(440 3347)"/></g><g transform="translate(-374 -3281)"><circle class="g" cx="3.5" cy="3.5" r="3.5" transform="translate(440 3347)"/></g><g transform="translate(-363 -3281)"><circle class="g" cx="3.5" cy="3.5" r="3.5" transform="translate(440 3347)"/></g><g transform="translate(-352 -3281)"><circle class="g" cx="3.5" cy="3.5" r="3.5" transform="translate(440 3347)"/></g><g transform="translate(-341 -3281)"><circle class="g" cx="3.5" cy="3.5" r="3.5" transform="translate(440 3347)"/></g><g transform="translate(-330 -3281)"><circle class="g" cx="3.5" cy="3.5" r="3.5" transform="translate(440 3347)"/></g><g transform="translate(-319 -3281)"><circle class="g" cx="3.5" cy="3.5" r="3.5" transform="translate(440 3347)"/></g><g transform="translate(-308 -3281)"><circle class="g" cx="3.5" cy="3.5" r="3.5" transform="translate(440 3347)"/></g><g transform="translate(-297 -3281)"><circle class="g" cx="3.5" cy="3.5" r="3.5" transform="translate(440 3347)"/></g><g transform="translate(-286 -3281)"><circle class="g" cx="3.5" cy="3.5" r="3.5" transform="translate(440 3347)"/></g><g transform="translate(-275 -3281)"><circle class="g" cx="3.5" cy="3.5" r="3.5" transform="translate(440 3347)"/></g><g transform="translate(-264 -3281)"><circle class="g" cx="3.5" cy="3.5" r="3.5" transform="translate(440 3347)"/></g><g transform="translate(-253 -3281)"><circle class="g" cx="3.5" cy="3.5" r="3.5" transform="translate(440 3347)"/></g><g transform="translate(-242 -3281)"><circle class="g" cx="3.5" cy="3.5" r="3.5" transform="translate(440 3347)"/></g><g transform="translate(-231 -3281)"><circle class="g" cx="3.5" cy="3.5" r="3.5" transform="translate(440 3347)"/></g><g transform="translate(-220 -3281)"><circle class="g" cx="3.5" cy="3.5" r="3.5" transform="translate(440 3347)"/></g><g transform="translate(-209 -3281)"><circle class="g" cx="3.5" cy="3.5" r="3.5" transform="translate(440 3347)"/></g><g transform="translate(-198 -3281)"><circle class="g" cx="3.5" cy="3.5" r="3.5" transform="translate(440 3347)"/></g><g transform="translate(-187 -3281)"><circle class="g" cx="3.5" cy="3.5" r="3.5" transform="translate(440 3347)"/></g><g transform="translate(-176 -3281)"><circle class="g" cx="3.5" cy="3.5" r="3.5" transform="translate(440 3347)"/></g><g transform="translate(-165 -3281)"><circle class="g" cx="3.5" cy="3.5" r="3.5" transform="translate(440 3347)"/></g><g transform="translate(-154 -3281)"><circle class="g" cx="3.5" cy="3.5" r="3.5" transform="translate(440 3347)"/></g><g transform="translate(-143 -3281)"><circle class="g" cx="3.5" cy="3.5" r="3.5" transform="translate(440 3347)"/></g><g transform="translate(-132 -3281)"><circle class="g" cx="3.5" cy="3.5" r="3.5" transform="translate(440 3347)"/></g><g transform="translate(-121 -3281)"><circle class="g" cx="3.5" cy="3.5" r="3.5" transform="translate(440 3347)"/></g><g transform="translate(-440 -3270)"><circle class="g" cx="3.5" cy="3.5" r="3.5" transform="translate(440 3347)"/></g><g transform="translate(-429 -3270)"><circle class="g" cx="3.5" cy="3.5" r="3.5" transform="translate(440 3347)"/></g><g transform="translate(-418 -3270)"><circle class="g" cx="3.5" cy="3.5" r="3.5" transform="translate(440 3347)"/></g><g transform="translate(-407 -3270)"><circle class="g" cx="3.5" cy="3.5" r="3.5" transform="translate(440 3347)"/></g><g transform="translate(-396 -3270)"><circle class="g" cx="3.5" cy="3.5" r="3.5" transform="translate(440 3347)"/></g><g transform="translate(-385 -3270)"><circle class="g" cx="3.5" cy="3.5" r="3.5" transform="translate(440 3347)"/></g><g transform="translate(-374 -3270)"><circle class="g" cx="3.5" cy="3.5" r="3.5" transform="translate(440 3347)"/></g><g transform="translate(-363 -3270)"><circle class="g" cx="3.5" cy="3.5" r="3.5" transform="translate(440 3347)"/></g><g transform="translate(-352 -3270)"><circle class="g" cx="3.5" cy="3.5" r="3.5" transform="translate(440 3347)"/></g><g transform="translate(-341 -3270)"><circle class="g" cx="3.5" cy="3.5" r="3.5" transform="translate(440 3347)"/></g><g transform="translate(-330 -3270)"><circle class="g" cx="3.5" cy="3.5" r="3.5" transform="translate(440 3347)"/></g><g transform="translate(-319 -3270)"><circle class="g" cx="3.5" cy="3.5" r="3.5" transform="translate(440 3347)"/></g><g transform="translate(-308 -3270)"><circle class="g" cx="3.5" cy="3.5" r="3.5" transform="translate(440 3347)"/></g><g transform="translate(-297 -3270)"><circle class="g" cx="3.5" cy="3.5" r="3.5" transform="translate(440 3347)"/></g><g transform="translate(-286 -3270)"><circle class="g" cx="3.5" cy="3.5" r="3.5" transform="translate(440 3347)"/></g><g transform="translate(-275 -3270)"><circle class="g" cx="3.5" cy="3.5" r="3.5" transform="translate(440 3347)"/></g><g transform="translate(-264 -3270)"><circle class="g" cx="3.5" cy="3.5" r="3.5" transform="translate(440 3347)"/></g><g transform="translate(-253 -3270)"><circle class="g" cx="3.5" cy="3.5" r="3.5" transform="translate(440 3347)"/></g><g transform="translate(-242 -3270)"><circle class="g" cx="3.5" cy="3.5" r="3.5" transform="translate(440 3347)"/></g><g transform="translate(-231 -3270)"><circle class="g" cx="3.5" cy="3.5" r="3.5" transform="translate(440 3347)"/></g><g transform="translate(-220 -3270)"><circle class="g" cx="3.5" cy="3.5" r="3.5" transform="translate(440 3347)"/></g><g transform="translate(-209 -3270)"><circle class="g" cx="3.5" cy="3.5" r="3.5" transform="translate(440 3347)"/></g><g transform="translate(-198 -3270)"><circle class="g" cx="3.5" cy="3.5" r="3.5" transform="translate(440 3347)"/></g><g transform="translate(-187 -3270)"><circle class="g" cx="3.5" cy="3.5" r="3.5" transform="translate(440 3347)"/></g><g transform="translate(-176 -3270)"><circle class="g" cx="3.5" cy="3.5" r="3.5" transform="translate(440 3347)"/></g><g transform="translate(-165 -3270)"><circle class="g" cx="3.5" cy="3.5" r="3.5" transform="translate(440 3347)"/></g><g transform="translate(-154 -3270)"><circle class="g" cx="3.5" cy="3.5" r="3.5" transform="translate(440 3347)"/></g><g transform="translate(-143 -3270)"><circle class="g" cx="3.5" cy="3.5" r="3.5" transform="translate(440 3347)"/></g><g transform="translate(-132 -3270)"><circle class="g" cx="3.5" cy="3.5" r="3.5" transform="translate(440 3347)"/></g><g transform="translate(-121 -3270)"><circle class="g" cx="3.5" cy="3.5" r="3.5" transform="translate(440 3347)"/></g><g transform="translate(-440 -3259)"><circle class="g" cx="3.5" cy="3.5" r="3.5" transform="translate(440 3347)"/></g><g transform="translate(-429 -3259)"><circle class="g" cx="3.5" cy="3.5" r="3.5" transform="translate(440 3347)"/></g><g transform="translate(-418 -3259)"><circle class="g" cx="3.5" cy="3.5" r="3.5" transform="translate(440 3347)"/></g><g transform="translate(-407 -3259)"><circle class="g" cx="3.5" cy="3.5" r="3.5" transform="translate(440 3347)"/></g><g transform="translate(-396 -3259)"><circle class="g" cx="3.5" cy="3.5" r="3.5" transform="translate(440 3347)"/></g><g transform="translate(-385 -3259)"><circle class="g" cx="3.5" cy="3.5" r="3.5" transform="translate(440 3347)"/></g><g transform="translate(-374 -3259)"><circle class="g" cx="3.5" cy="3.5" r="3.5" transform="translate(440 3347)"/></g><g transform="translate(-363 -3259)"><circle class="g" cx="3.5" cy="3.5" r="3.5" transform="translate(440 3347)"/></g><g transform="translate(-352 -3259)"><circle class="g" cx="3.5" cy="3.5" r="3.5" transform="translate(440 3347)"/></g><g transform="translate(-341 -3259)"><circle class="g" cx="3.5" cy="3.5" r="3.5" transform="translate(440 3347)"/></g><g transform="translate(-330 -3259)"><circle class="g" cx="3.5" cy="3.5" r="3.5" transform="translate(440 3347)"/></g><g transform="translate(-319 -3259)"><circle class="g" cx="3.5" cy="3.5" r="3.5" transform="translate(440 3347)"/></g><g transform="translate(-308 -3259)"><circle class="g" cx="3.5" cy="3.5" r="3.5" transform="translate(440 3347)"/></g><g transform="translate(-297 -3259)"><circle class="g" cx="3.5" cy="3.5" r="3.5" transform="translate(440 3347)"/></g><g transform="translate(-286 -3259)"><circle class="g" cx="3.5" cy="3.5" r="3.5" transform="translate(440 3347)"/></g><g transform="translate(-275 -3259)"><circle class="g" cx="3.5" cy="3.5" r="3.5" transform="translate(440 3347)"/></g><g transform="translate(-264 -3259)"><circle class="g" cx="3.5" cy="3.5" r="3.5" transform="translate(440 3347)"/></g><g transform="translate(-253 -3259)"><circle class="g" cx="3.5" cy="3.5" r="3.5" transform="translate(440 3347)"/></g><g transform="translate(-242 -3259)"><circle class="g" cx="3.5" cy="3.5" r="3.5" transform="translate(440 3347)"/></g><g transform="translate(-231 -3259)"><circle class="g" cx="3.5" cy="3.5" r="3.5" transform="translate(440 3347)"/></g><g transform="translate(-220 -3259)"><circle class="g" cx="3.5" cy="3.5" r="3.5" transform="translate(440 3347)"/></g><g transform="translate(-209 -3259)"><circle class="g" cx="3.5" cy="3.5" r="3.5" transform="translate(440 3347)"/></g><g transform="translate(-198 -3259)"><circle class="g" cx="3.5" cy="3.5" r="3.5" transform="translate(440 3347)"/></g><g transform="translate(-187 -3259)"><circle class="g" cx="3.5" cy="3.5" r="3.5" transform="translate(440 3347)"/></g><g transform="translate(-176 -3259)"><circle class="g" cx="3.5" cy="3.5" r="3.5" transform="translate(440 3347)"/></g><g transform="translate(-165 -3259)"><circle class="g" cx="3.5" cy="3.5" r="3.5" transform="translate(440 3347)"/></g><g transform="translate(-154 -3259)"><circle class="g" cx="3.5" cy="3.5" r="3.5" transform="translate(440 3347)"/></g><g transform="translate(-143 -3259)"><circle class="g" cx="3.5" cy="3.5" r="3.5" transform="translate(440 3347)"/></g><g transform="translate(-132 -3259)"><circle class="g" cx="3.5" cy="3.5" r="3.5" transform="translate(440 3347)"/></g><g transform="translate(-121 -3259)"><circle class="g" cx="3.5" cy="3.5" r="3.5" transform="translate(440 3347)"/></g><g transform="translate(-440 -3248)"><circle class="g" cx="3.5" cy="3.5" r="3.5" transform="translate(440 3347)"/></g><g transform="translate(-429 -3248)"><circle class="g" cx="3.5" cy="3.5" r="3.5" transform="translate(440 3347)"/></g><g transform="translate(-418 -3248)"><circle class="g" cx="3.5" cy="3.5" r="3.5" transform="translate(440 3347)"/></g><g transform="translate(-407 -3248)"><circle class="g" cx="3.5" cy="3.5" r="3.5" transform="translate(440 3347)"/></g><g transform="translate(-396 -3248)"><circle class="g" cx="3.5" cy="3.5" r="3.5" transform="translate(440 3347)"/></g><g transform="translate(-385 -3248)"><circle class="g" cx="3.5" cy="3.5" r="3.5" transform="translate(440 3347)"/></g><g transform="translate(-374 -3248)"><circle class="g" cx="3.5" cy="3.5" r="3.5" transform="translate(440 3347)"/></g><g transform="translate(-363 -3248)"><circle class="g" cx="3.5" cy="3.5" r="3.5" transform="translate(440 3347)"/></g><g transform="translate(-352 -3248)"><circle class="g" cx="3.5" cy="3.5" r="3.5" transform="translate(440 3347)"/></g><g transform="translate(-341 -3248)"><circle class="g" cx="3.5" cy="3.5" r="3.5" transform="translate(440 3347)"/></g><g transform="translate(-330 -3248)"><circle class="g" cx="3.5" cy="3.5" r="3.5" transform="translate(440 3347)"/></g><g transform="translate(-319 -3248)"><circle class="g" cx="3.5" cy="3.5" r="3.5" transform="translate(440 3347)"/></g><g transform="translate(-308 -3248)"><circle class="g" cx="3.5" cy="3.5" r="3.5" transform="translate(440 3347)"/></g><g transform="translate(-297 -3248)"><circle class="g" cx="3.5" cy="3.5" r="3.5" transform="translate(440 3347)"/></g><g transform="translate(-286 -3248)"><circle class="g" cx="3.5" cy="3.5" r="3.5" transform="translate(440 3347)"/></g><g transform="translate(-275 -3248)"><circle class="g" cx="3.5" cy="3.5" r="3.5" transform="translate(440 3347)"/></g><g transform="translate(-264 -3248)"><circle class="g" cx="3.5" cy="3.5" r="3.5" transform="translate(440 3347)"/></g><g transform="translate(-253 -3248)"><circle class="g" cx="3.5" cy="3.5" r="3.5" transform="translate(440 3347)"/></g><g transform="translate(-242 -3248)"><circle class="g" cx="3.5" cy="3.5" r="3.5" transform="translate(440 3347)"/></g><g transform="translate(-231 -3248)"><circle class="g" cx="3.5" cy="3.5" r="3.5" transform="translate(440 3347)"/></g><g transform="translate(-220 -3248)"><circle class="g" cx="3.5" cy="3.5" r="3.5" transform="translate(440 3347)"/></g><g transform="translate(-209 -3248)"><circle class="g" cx="3.5" cy="3.5" r="3.5" transform="translate(440 3347)"/></g><g transform="translate(-198 -3248)"><circle class="g" cx="3.5" cy="3.5" r="3.5" transform="translate(440 3347)"/></g><g transform="translate(-187 -3248)"><circle class="g" cx="3.5" cy="3.5" r="3.5" transform="translate(440 3347)"/></g><g transform="translate(-176 -3248)"><circle class="g" cx="3.5" cy="3.5" r="3.5" transform="translate(440 3347)"/></g><g transform="translate(-165 -3248)"><circle class="g" cx="3.5" cy="3.5" r="3.5" transform="translate(440 3347)"/></g><g transform="translate(-154 -3248)"><circle class="g" cx="3.5" cy="3.5" r="3.5" transform="translate(440 3347)"/></g><g transform="translate(-143 -3248)"><circle class="g" cx="3.5" cy="3.5" r="3.5" transform="translate(440 3347)"/></g><g transform="translate(-132 -3248)"><circle class="g" cx="3.5" cy="3.5" r="3.5" transform="translate(440 3347)"/></g><g transform="translate(-121 -3248)"><circle class="g" cx="3.5" cy="3.5" r="3.5" transform="translate(440 3347)"/></g><g transform="translate(-440 -3237)"><circle class="g" cx="3.5" cy="3.5" r="3.5" transform="translate(440 3347)"/></g><g transform="translate(-429 -3237)"><circle class="g" cx="3.5" cy="3.5" r="3.5" transform="translate(440 3347)"/></g><g transform="translate(-418 -3237)"><circle class="g" cx="3.5" cy="3.5" r="3.5" transform="translate(440 3347)"/></g><g transform="translate(-407 -3237)"><circle class="g" cx="3.5" cy="3.5" r="3.5" transform="translate(440 3347)"/></g><g transform="translate(-396 -3237)"><circle class="g" cx="3.5" cy="3.5" r="3.5" transform="translate(440 3347)"/></g><g transform="translate(-385 -3237)"><circle class="g" cx="3.5" cy="3.5" r="3.5" transform="translate(440 3347)"/></g><g transform="translate(-374 -3237)"><circle class="g" cx="3.5" cy="3.5" r="3.5" transform="translate(440 3347)"/></g><g transform="translate(-363 -3237)"><circle class="g" cx="3.5" cy="3.5" r="3.5" transform="translate(440 3347)"/></g><g transform="translate(-352 -3237)"><circle class="g" cx="3.5" cy="3.5" r="3.5" transform="translate(440 3347)"/></g><g transform="translate(-341 -3237)"><circle class="g" cx="3.5" cy="3.5" r="3.5" transform="translate(440 3347)"/></g><g transform="translate(-330 -3237)"><circle class="g" cx="3.5" cy="3.5" r="3.5" transform="translate(440 3347)"/></g><g transform="translate(-319 -3237)"><circle class="g" cx="3.5" cy="3.5" r="3.5" transform="translate(440 3347)"/></g><g transform="translate(-308 -3237)"><circle class="g" cx="3.5" cy="3.5" r="3.5" transform="translate(440 3347)"/></g><g transform="translate(-297 -3237)"><circle class="g" cx="3.5" cy="3.5" r="3.5" transform="translate(440 3347)"/></g><g transform="translate(-286 -3237)"><circle class="g" cx="3.5" cy="3.5" r="3.5" transform="translate(440 3347)"/></g><g transform="translate(-275 -3237)"><circle class="g" cx="3.5" cy="3.5" r="3.5" transform="translate(440 3347)"/></g><g transform="translate(-264 -3237)"><circle class="g" cx="3.5" cy="3.5" r="3.5" transform="translate(440 3347)"/></g><g transform="translate(-253 -3237)"><circle class="g" cx="3.5" cy="3.5" r="3.5" transform="translate(440 3347)"/></g><g transform="translate(-242 -3237)"><circle class="g" cx="3.5" cy="3.5" r="3.5" transform="translate(440 3347)"/></g><g transform="translate(-231 -3237)"><circle class="g" cx="3.5" cy="3.5" r="3.5" transform="translate(440 3347)"/></g><g transform="translate(-220 -3237)"><circle class="g" cx="3.5" cy="3.5" r="3.5" transform="translate(440 3347)"/></g><g transform="translate(-209 -3237)"><circle class="g" cx="3.5" cy="3.5" r="3.5" transform="translate(440 3347)"/></g><g transform="translate(-198 -3237)"><circle class="g" cx="3.5" cy="3.5" r="3.5" transform="translate(440 3347)"/></g><g transform="translate(-187 -3237)"><circle class="g" cx="3.5" cy="3.5" r="3.5" transform="translate(440 3347)"/></g><g transform="translate(-176 -3237)"><circle class="g" cx="3.5" cy="3.5" r="3.5" transform="translate(440 3347)"/></g><g transform="translate(-165 -3237)"><circle class="g" cx="3.5" cy="3.5" r="3.5" transform="translate(440 3347)"/></g><g transform="translate(-154 -3237)"><circle class="g" cx="3.5" cy="3.5" r="3.5" transform="translate(440 3347)"/></g><g transform="translate(-143 -3237)"><circle class="g" cx="3.5" cy="3.5" r="3.5" transform="translate(440 3347)"/></g><g transform="translate(-132 -3237)"><circle class="g" cx="3.5" cy="3.5" r="3.5" transform="translate(440 3347)"/></g><g transform="translate(-121 -3237)"><circle class="g" cx="3.5" cy="3.5" r="3.5" transform="translate(440 3347)"/></g><g transform="translate(-440 -3226)"><circle class="g" cx="3.5" cy="3.5" r="3.5" transform="translate(440 3347)"/></g><g transform="translate(-429 -3226)"><circle class="g" cx="3.5" cy="3.5" r="3.5" transform="translate(440 3347)"/></g><g transform="translate(-418 -3226)"><circle class="g" cx="3.5" cy="3.5" r="3.5" transform="translate(440 3347)"/></g><g transform="translate(-407 -3226)"><circle class="g" cx="3.5" cy="3.5" r="3.5" transform="translate(440 3347)"/></g><g transform="translate(-396 -3226)"><circle class="g" cx="3.5" cy="3.5" r="3.5" transform="translate(440 3347)"/></g><g transform="translate(-385 -3226)"><circle class="g" cx="3.5" cy="3.5" r="3.5" transform="translate(440 3347)"/></g><g transform="translate(-374 -3226)"><circle class="g" cx="3.5" cy="3.5" r="3.5" transform="translate(440 3347)"/></g><g transform="translate(-363 -3226)"><circle class="g" cx="3.5" cy="3.5" r="3.5" transform="translate(440 3347)"/></g><g transform="translate(-352 -3226)"><circle class="g" cx="3.5" cy="3.5" r="3.5" transform="translate(440 3347)"/></g><g transform="translate(-341 -3226)"><circle class="g" cx="3.5" cy="3.5" r="3.5" transform="translate(440 3347)"/></g><g transform="translate(-330 -3226)"><circle class="g" cx="3.5" cy="3.5" r="3.5" transform="translate(440 3347)"/></g><g transform="translate(-319 -3226)"><circle class="g" cx="3.5" cy="3.5" r="3.5" transform="translate(440 3347)"/></g><g transform="translate(-308 -3226)"><circle class="g" cx="3.5" cy="3.5" r="3.5" transform="translate(440 3347)"/></g><g transform="translate(-297 -3226)"><circle class="g" cx="3.5" cy="3.5" r="3.5" transform="translate(440 3347)"/></g><g transform="translate(-286 -3226)"><circle class="g" cx="3.5" cy="3.5" r="3.5" transform="translate(440 3347)"/></g><g transform="translate(-275 -3226)"><circle class="g" cx="3.5" cy="3.5" r="3.5" transform="translate(440 3347)"/></g><g transform="translate(-264 -3226)"><circle class="g" cx="3.5" cy="3.5" r="3.5" transform="translate(440 3347)"/></g><g transform="translate(-253 -3226)"><circle class="g" cx="3.5" cy="3.5" r="3.5" transform="translate(440 3347)"/></g><g transform="translate(-242 -3226)"><circle class="g" cx="3.5" cy="3.5" r="3.5" transform="translate(440 3347)"/></g><g transform="translate(-231 -3226)"><circle class="g" cx="3.5" cy="3.5" r="3.5" transform="translate(440 3347)"/></g><g transform="translate(-220 -3226)"><circle class="g" cx="3.5" cy="3.5" r="3.5" transform="translate(440 3347)"/></g><g transform="translate(-209 -3226)"><circle class="g" cx="3.5" cy="3.5" r="3.5" transform="translate(440 3347)"/></g><g transform="translate(-198 -3226)"><circle class="g" cx="3.5" cy="3.5" r="3.5" transform="translate(440 3347)"/></g><g transform="translate(-187 -3226)"><circle class="g" cx="3.5" cy="3.5" r="3.5" transform="translate(440 3347)"/></g><g transform="translate(-176 -3226)"><circle class="g" cx="3.5" cy="3.5" r="3.5" transform="translate(440 3347)"/></g><g transform="translate(-165 -3226)"><circle class="g" cx="3.5" cy="3.5" r="3.5" transform="translate(440 3347)"/></g><g transform="translate(-154 -3226)"><circle class="g" cx="3.5" cy="3.5" r="3.5" transform="translate(440 3347)"/></g><g transform="translate(-143 -3226)"><circle class="g" cx="3.5" cy="3.5" r="3.5" transform="translate(440 3347)"/></g><g transform="translate(-132 -3226)"><circle class="g" cx="3.5" cy="3.5" r="3.5" transform="translate(440 3347)"/></g><g transform="translate(-121 -3226)"><circle class="g" cx="3.5" cy="3.5" r="3.5" transform="translate(440 3347)"/></g><g transform="translate(-440 -3215)"><circle class="g" cx="3.5" cy="3.5" r="3.5" transform="translate(440 3347)"/></g><g transform="translate(-429 -3215)"><circle class="g" cx="3.5" cy="3.5" r="3.5" transform="translate(440 3347)"/></g><g transform="translate(-418 -3215)"><circle class="g" cx="3.5" cy="3.5" r="3.5" transform="translate(440 3347)"/></g><g transform="translate(-407 -3215)"><circle class="g" cx="3.5" cy="3.5" r="3.5" transform="translate(440 3347)"/></g><g transform="translate(-396 -3215)"><circle class="g" cx="3.5" cy="3.5" r="3.5" transform="translate(440 3347)"/></g><g transform="translate(-385 -3215)"><circle class="g" cx="3.5" cy="3.5" r="3.5" transform="translate(440 3347)"/></g><g transform="translate(-374 -3215)"><circle class="g" cx="3.5" cy="3.5" r="3.5" transform="translate(440 3347)"/></g><g transform="translate(-363 -3215)"><circle class="g" cx="3.5" cy="3.5" r="3.5" transform="translate(440 3347)"/></g><g transform="translate(-352 -3215)"><circle class="g" cx="3.5" cy="3.5" r="3.5" transform="translate(440 3347)"/></g><g transform="translate(-341 -3215)"><circle class="g" cx="3.5" cy="3.5" r="3.5" transform="translate(440 3347)"/></g><g transform="translate(-330 -3215)"><circle class="g" cx="3.5" cy="3.5" r="3.5" transform="translate(440 3347)"/></g><g transform="translate(-319 -3215)"><circle class="g" cx="3.5" cy="3.5" r="3.5" transform="translate(440 3347)"/></g><g transform="translate(-308 -3215)"><circle class="g" cx="3.5" cy="3.5" r="3.5" transform="translate(440 3347)"/></g><g transform="translate(-297 -3215)"><circle class="g" cx="3.5" cy="3.5" r="3.5" transform="translate(440 3347)"/></g><g transform="translate(-286 -3215)"><circle class="g" cx="3.5" cy="3.5" r="3.5" transform="translate(440 3347)"/></g><g transform="translate(-275 -3215)"><circle class="g" cx="3.5" cy="3.5" r="3.5" transform="translate(440 3347)"/></g><g transform="translate(-264 -3215)"><circle class="g" cx="3.5" cy="3.5" r="3.5" transform="translate(440 3347)"/></g><g transform="translate(-253 -3215)"><circle class="g" cx="3.5" cy="3.5" r="3.5" transform="translate(440 3347)"/></g><g transform="translate(-242 -3215)"><circle class="g" cx="3.5" cy="3.5" r="3.5" transform="translate(440 3347)"/></g><g transform="translate(-231 -3215)"><circle class="g" cx="3.5" cy="3.5" r="3.5" transform="translate(440 3347)"/></g><g transform="translate(-220 -3215)"><circle class="g" cx="3.5" cy="3.5" r="3.5" transform="translate(440 3347)"/></g><g transform="translate(-209 -3215)"><circle class="g" cx="3.5" cy="3.5" r="3.5" transform="translate(440 3347)"/></g><g transform="translate(-198 -3215)"><circle class="g" cx="3.5" cy="3.5" r="3.5" transform="translate(440 3347)"/></g><g transform="translate(-187 -3215)"><circle class="g" cx="3.5" cy="3.5" r="3.5" transform="translate(440 3347)"/></g><g transform="translate(-176 -3215)"><circle class="g" cx="3.5" cy="3.5" r="3.5" transform="translate(440 3347)"/></g><g transform="translate(-165 -3215)"><circle class="g" cx="3.5" cy="3.5" r="3.5" transform="translate(440 3347)"/></g><g transform="translate(-154 -3215)"><circle class="g" cx="3.5" cy="3.5" r="3.5" transform="translate(440 3347)"/></g><g transform="translate(-143 -3215)"><circle class="g" cx="3.5" cy="3.5" r="3.5" transform="translate(440 3347)"/></g><g transform="translate(-132 -3215)"><circle class="g" cx="3.5" cy="3.5" r="3.5" transform="translate(440 3347)"/></g><g transform="translate(-121 -3215)"><circle class="g" cx="3.5" cy="3.5" r="3.5" transform="translate(440 3347)"/></g><g transform="translate(-440 -3204)"><circle class="g" cx="3.5" cy="3.5" r="3.5" transform="translate(440 3347)"/></g><g transform="translate(-429 -3204)"><circle class="g" cx="3.5" cy="3.5" r="3.5" transform="translate(440 3347)"/></g><g transform="translate(-418 -3204)"><circle class="g" cx="3.5" cy="3.5" r="3.5" transform="translate(440 3347)"/></g><g transform="translate(-407 -3204)"><circle class="g" cx="3.5" cy="3.5" r="3.5" transform="translate(440 3347)"/></g><g transform="translate(-396 -3204)"><circle class="g" cx="3.5" cy="3.5" r="3.5" transform="translate(440 3347)"/></g><g transform="translate(-385 -3204)"><circle class="g" cx="3.5" cy="3.5" r="3.5" transform="translate(440 3347)"/></g><g transform="translate(-374 -3204)"><circle class="g" cx="3.5" cy="3.5" r="3.5" transform="translate(440 3347)"/></g><g transform="translate(-363 -3204)"><circle class="g" cx="3.5" cy="3.5" r="3.5" transform="translate(440 3347)"/></g><g transform="translate(-352 -3204)"><circle class="g" cx="3.5" cy="3.5" r="3.5" transform="translate(440 3347)"/></g><g transform="translate(-341 -3204)"><circle class="g" cx="3.5" cy="3.5" r="3.5" transform="translate(440 3347)"/></g><g transform="translate(-330 -3204)"><circle class="g" cx="3.5" cy="3.5" r="3.5" transform="translate(440 3347)"/></g><g transform="translate(-319 -3204)"><circle class="g" cx="3.5" cy="3.5" r="3.5" transform="translate(440 3347)"/></g><g transform="translate(-308 -3204)"><circle class="g" cx="3.5" cy="3.5" r="3.5" transform="translate(440 3347)"/></g><g transform="translate(-297 -3204)"><circle class="g" cx="3.5" cy="3.5" r="3.5" transform="translate(440 3347)"/></g><g transform="translate(-286 -3204)"><circle class="g" cx="3.5" cy="3.5" r="3.5" transform="translate(440 3347)"/></g><g transform="translate(-275 -3204)"><circle class="g" cx="3.5" cy="3.5" r="3.5" transform="translate(440 3347)"/></g><g transform="translate(-264 -3204)"><circle class="g" cx="3.5" cy="3.5" r="3.5" transform="translate(440 3347)"/></g><g transform="translate(-253 -3204)"><circle class="g" cx="3.5" cy="3.5" r="3.5" transform="translate(440 3347)"/></g><g transform="translate(-242 -3204)"><circle class="g" cx="3.5" cy="3.5" r="3.5" transform="translate(440 3347)"/></g><g transform="translate(-231 -3204)"><circle class="g" cx="3.5" cy="3.5" r="3.5" transform="translate(440 3347)"/></g><g transform="translate(-220 -3204)"><circle class="g" cx="3.5" cy="3.5" r="3.5" transform="translate(440 3347)"/></g><g transform="translate(-209 -3204)"><circle class="g" cx="3.5" cy="3.5" r="3.5" transform="translate(440 3347)"/></g><g transform="translate(-198 -3204)"><circle class="g" cx="3.5" cy="3.5" r="3.5" transform="translate(440 3347)"/></g><g transform="translate(-187 -3204)"><circle class="g" cx="3.5" cy="3.5" r="3.5" transform="translate(440 3347)"/></g><g transform="translate(-176 -3204)"><circle class="g" cx="3.5" cy="3.5" r="3.5" transform="translate(440 3347)"/></g><g transform="translate(-165 -3204)"><circle class="g" cx="3.5" cy="3.5" r="3.5" transform="translate(440 3347)"/></g><g transform="translate(-154 -3204)"><circle class="g" cx="3.5" cy="3.5" r="3.5" transform="translate(440 3347)"/></g><g transform="translate(-143 -3204)"><circle class="g" cx="3.5" cy="3.5" r="3.5" transform="translate(440 3347)"/></g><g transform="translate(-132 -3204)"><circle class="g" cx="3.5" cy="3.5" r="3.5" transform="translate(440 3347)"/></g><g transform="translate(-121 -3204)"><circle class="g" cx="3.5" cy="3.5" r="3.5" transform="translate(440 3347)"/></g><g transform="translate(-440 -3193)"><circle class="g" cx="3.5" cy="3.5" r="3.5" transform="translate(440 3347)"/></g><g transform="translate(-429 -3193)"><circle class="g" cx="3.5" cy="3.5" r="3.5" transform="translate(440 3347)"/></g><g transform="translate(-418 -3193)"><circle class="g" cx="3.5" cy="3.5" r="3.5" transform="translate(440 3347)"/></g><g transform="translate(-407 -3193)"><circle class="g" cx="3.5" cy="3.5" r="3.5" transform="translate(440 3347)"/></g><g transform="translate(-396 -3193)"><circle class="g" cx="3.5" cy="3.5" r="3.5" transform="translate(440 3347)"/></g><g transform="translate(-385 -3193)"><circle class="g" cx="3.5" cy="3.5" r="3.5" transform="translate(440 3347)"/></g><g transform="translate(-374 -3193)"><circle class="g" cx="3.5" cy="3.5" r="3.5" transform="translate(440 3347)"/></g><g transform="translate(-363 -3193)"><circle class="g" cx="3.5" cy="3.5" r="3.5" transform="translate(440 3347)"/></g><g transform="translate(-352 -3193)"><circle class="g" cx="3.5" cy="3.5" r="3.5" transform="translate(440 3347)"/></g><g transform="translate(-341 -3193)"><circle class="g" cx="3.5" cy="3.5" r="3.5" transform="translate(440 3347)"/></g><g transform="translate(-330 -3193)"><circle class="g" cx="3.5" cy="3.5" r="3.5" transform="translate(440 3347)"/></g><g transform="translate(-319 -3193)"><circle class="g" cx="3.5" cy="3.5" r="3.5" transform="translate(440 3347)"/></g><g transform="translate(-308 -3193)"><circle class="g" cx="3.5" cy="3.5" r="3.5" transform="translate(440 3347)"/></g><g transform="translate(-297 -3193)"><circle class="g" cx="3.5" cy="3.5" r="3.5" transform="translate(440 3347)"/></g><g transform="translate(-286 -3193)"><circle class="g" cx="3.5" cy="3.5" r="3.5" transform="translate(440 3347)"/></g><g transform="translate(-275 -3193)"><circle class="g" cx="3.5" cy="3.5" r="3.5" transform="translate(440 3347)"/></g><g transform="translate(-264 -3193)"><circle class="g" cx="3.5" cy="3.5" r="3.5" transform="translate(440 3347)"/></g><g transform="translate(-253 -3193)"><circle class="g" cx="3.5" cy="3.5" r="3.5" transform="translate(440 3347)"/></g><g transform="translate(-242 -3193)"><circle class="g" cx="3.5" cy="3.5" r="3.5" transform="translate(440 3347)"/></g><g transform="translate(-231 -3193)"><circle class="g" cx="3.5" cy="3.5" r="3.5" transform="translate(440 3347)"/></g><g transform="translate(-220 -3193)"><circle class="g" cx="3.5" cy="3.5" r="3.5" transform="translate(440 3347)"/></g><g transform="translate(-209 -3193)"><circle class="g" cx="3.5" cy="3.5" r="3.5" transform="translate(440 3347)"/></g><g transform="translate(-198 -3193)"><circle class="g" cx="3.5" cy="3.5" r="3.5" transform="translate(440 3347)"/></g><g transform="translate(-187 -3193)"><circle class="g" cx="3.5" cy="3.5" r="3.5" transform="translate(440 3347)"/></g><g transform="translate(-176 -3193)"><circle class="g" cx="3.5" cy="3.5" r="3.5" transform="translate(440 3347)"/></g><g transform="translate(-165 -3193)"><circle class="g" cx="3.5" cy="3.5" r="3.5" transform="translate(440 3347)"/></g><g transform="translate(-154 -3193)"><circle class="g" cx="3.5" cy="3.5" r="3.5" transform="translate(440 3347)"/></g><g transform="translate(-143 -3193)"><circle class="g" cx="3.5" cy="3.5" r="3.5" transform="translate(440 3347)"/></g><g transform="translate(-132 -3193)"><circle class="g" cx="3.5" cy="3.5" r="3.5" transform="translate(440 3347)"/></g><g transform="translate(-121 -3193)"><circle class="g" cx="3.5" cy="3.5" r="3.5" transform="translate(440 3347)"/></g><g transform="translate(-440 -3182)"><circle class="g" cx="3.5" cy="3.5" r="3.5" transform="translate(440 3347)"/></g><g transform="translate(-429 -3182)"><circle class="g" cx="3.5" cy="3.5" r="3.5" transform="translate(440 3347)"/></g><g transform="translate(-418 -3182)"><circle class="g" cx="3.5" cy="3.5" r="3.5" transform="translate(440 3347)"/></g><g transform="translate(-407 -3182)"><circle class="g" cx="3.5" cy="3.5" r="3.5" transform="translate(440 3347)"/></g><g transform="translate(-396 -3182)"><circle class="g" cx="3.5" cy="3.5" r="3.5" transform="translate(440 3347)"/></g><g transform="translate(-385 -3182)"><circle class="g" cx="3.5" cy="3.5" r="3.5" transform="translate(440 3347)"/></g><g transform="translate(-374 -3182)"><circle class="g" cx="3.5" cy="3.5" r="3.5" transform="translate(440 3347)"/></g><g transform="translate(-363 -3182)"><circle class="g" cx="3.5" cy="3.5" r="3.5" transform="translate(440 3347)"/></g><g transform="translate(-352 -3182)"><circle class="g" cx="3.5" cy="3.5" r="3.5" transform="translate(440 3347)"/></g><g transform="translate(-341 -3182)"><circle class="g" cx="3.5" cy="3.5" r="3.5" transform="translate(440 3347)"/></g><g transform="translate(-330 -3182)"><circle class="g" cx="3.5" cy="3.5" r="3.5" transform="translate(440 3347)"/></g><g transform="translate(-319 -3182)"><circle class="g" cx="3.5" cy="3.5" r="3.5" transform="translate(440 3347)"/></g><g transform="translate(-308 -3182)"><circle class="g" cx="3.5" cy="3.5" r="3.5" transform="translate(440 3347)"/></g><g transform="translate(-297 -3182)"><circle class="g" cx="3.5" cy="3.5" r="3.5" transform="translate(440 3347)"/></g><g transform="translate(-286 -3182)"><circle class="g" cx="3.5" cy="3.5" r="3.5" transform="translate(440 3347)"/></g><g transform="translate(-275 -3182)"><circle class="g" cx="3.5" cy="3.5" r="3.5" transform="translate(440 3347)"/></g><g transform="translate(-264 -3182)"><circle class="g" cx="3.5" cy="3.5" r="3.5" transform="translate(440 3347)"/></g><g transform="translate(-253 -3182)"><circle class="g" cx="3.5" cy="3.5" r="3.5" transform="translate(440 3347)"/></g><g transform="translate(-242 -3182)"><circle class="g" cx="3.5" cy="3.5" r="3.5" transform="translate(440 3347)"/></g><g transform="translate(-231 -3182)"><circle class="g" cx="3.5" cy="3.5" r="3.5" transform="translate(440 3347)"/></g><g transform="translate(-220 -3182)"><circle class="g" cx="3.5" cy="3.5" r="3.5" transform="translate(440 3347)"/></g><g transform="translate(-209 -3182)"><circle class="g" cx="3.5" cy="3.5" r="3.5" transform="translate(440 3347)"/></g><g transform="translate(-198 -3182)"><circle class="g" cx="3.5" cy="3.5" r="3.5" transform="translate(440 3347)"/></g><g transform="translate(-187 -3182)"><circle class="g" cx="3.5" cy="3.5" r="3.5" transform="translate(440 3347)"/></g><g transform="translate(-176 -3182)"><circle class="g" cx="3.5" cy="3.5" r="3.5" transform="translate(440 3347)"/></g><g transform="translate(-165 -3182)"><circle class="g" cx="3.5" cy="3.5" r="3.5" transform="translate(440 3347)"/></g><g transform="translate(-154 -3182)"><circle class="g" cx="3.5" cy="3.5" r="3.5" transform="translate(440 3347)"/></g><g transform="translate(-143 -3182)"><circle class="g" cx="3.5" cy="3.5" r="3.5" transform="translate(440 3347)"/></g><g transform="translate(-132 -3182)"><circle class="g" cx="3.5" cy="3.5" r="3.5" transform="translate(440 3347)"/></g><g transform="translate(-121 -3182)"><circle class="g" cx="3.5" cy="3.5" r="3.5" transform="translate(440 3347)"/></g><g transform="translate(-440 -3171)"><circle class="g" cx="3.5" cy="3.5" r="3.5" transform="translate(440 3347)"/></g><g transform="translate(-429 -3171)"><circle class="g" cx="3.5" cy="3.5" r="3.5" transform="translate(440 3347)"/></g><g transform="translate(-418 -3171)"><circle class="g" cx="3.5" cy="3.5" r="3.5" transform="translate(440 3347)"/></g><g transform="translate(-407 -3171)"><circle class="g" cx="3.5" cy="3.5" r="3.5" transform="translate(440 3347)"/></g><g transform="translate(-396 -3171)"><circle class="g" cx="3.5" cy="3.5" r="3.5" transform="translate(440 3347)"/></g><g transform="translate(-385 -3171)"><circle class="g" cx="3.5" cy="3.5" r="3.5" transform="translate(440 3347)"/></g><g transform="translate(-374 -3171)"><circle class="g" cx="3.5" cy="3.5" r="3.5" transform="translate(440 3347)"/></g><g transform="translate(-363 -3171)"><circle class="g" cx="3.5" cy="3.5" r="3.5" transform="translate(440 3347)"/></g><g transform="translate(-352 -3171)"><circle class="g" cx="3.5" cy="3.5" r="3.5" transform="translate(440 3347)"/></g><g transform="translate(-341 -3171)"><circle class="g" cx="3.5" cy="3.5" r="3.5" transform="translate(440 3347)"/></g><g transform="translate(-330 -3171)"><circle class="g" cx="3.5" cy="3.5" r="3.5" transform="translate(440 3347)"/></g><g transform="translate(-319 -3171)"><circle class="g" cx="3.5" cy="3.5" r="3.5" transform="translate(440 3347)"/></g><g transform="translate(-308 -3171)"><circle class="g" cx="3.5" cy="3.5" r="3.5" transform="translate(440 3347)"/></g><g transform="translate(-297 -3171)"><circle class="g" cx="3.5" cy="3.5" r="3.5" transform="translate(440 3347)"/></g><g transform="translate(-286 -3171)"><circle class="g" cx="3.5" cy="3.5" r="3.5" transform="translate(440 3347)"/></g><g transform="translate(-275 -3171)"><circle class="g" cx="3.5" cy="3.5" r="3.5" transform="translate(440 3347)"/></g><g transform="translate(-264 -3171)"><circle class="g" cx="3.5" cy="3.5" r="3.5" transform="translate(440 3347)"/></g><g transform="translate(-253 -3171)"><circle class="g" cx="3.5" cy="3.5" r="3.5" transform="translate(440 3347)"/></g><g transform="translate(-242 -3171)"><circle class="g" cx="3.5" cy="3.5" r="3.5" transform="translate(440 3347)"/></g><g transform="translate(-231 -3171)"><circle class="g" cx="3.5" cy="3.5" r="3.5" transform="translate(440 3347)"/></g><g transform="translate(-220 -3171)"><circle class="g" cx="3.5" cy="3.5" r="3.5" transform="translate(440 3347)"/></g><g transform="translate(-209 -3171)"><circle class="g" cx="3.5" cy="3.5" r="3.5" transform="translate(440 3347)"/></g><g transform="translate(-198 -3171)"><circle class="g" cx="3.5" cy="3.5" r="3.5" transform="translate(440 3347)"/></g><g transform="translate(-187 -3171)"><circle class="g" cx="3.5" cy="3.5" r="3.5" transform="translate(440 3347)"/></g><g transform="translate(-176 -3171)"><circle class="g" cx="3.5" cy="3.5" r="3.5" transform="translate(440 3347)"/></g><g transform="translate(-165 -3171)"><circle class="g" cx="3.5" cy="3.5" r="3.5" transform="translate(440 3347)"/></g><g transform="translate(-154 -3171)"><circle class="g" cx="3.5" cy="3.5" r="3.5" transform="translate(440 3347)"/></g><g transform="translate(-143 -3171)"><circle class="g" cx="3.5" cy="3.5" r="3.5" transform="translate(440 3347)"/></g><g transform="translate(-132 -3171)"><circle class="g" cx="3.5" cy="3.5" r="3.5" transform="translate(440 3347)"/></g><g transform="translate(-121 -3171)"><circle class="g" cx="3.5" cy="3.5" r="3.5" transform="translate(440 3347)"/></g></g></g><g class="h" transform="translate(849 3884)"><circle class="j" cx="111" cy="111" r="111"/><circle class="c" cx="111" cy="111" r="110"/></g><g class="i" transform="translate(910 3945)"><circle class="j" cx="50" cy="50" r="50"/><circle class="c" cx="50" cy="50" r="48"/></g></g></svg>