<svg xmlns="http://www.w3.org/2000/svg" xmlns:xlink="http://www.w3.org/1999/xlink" width="184" height="184" viewBox="0 0 184 184"><defs><style>.a{fill:#fff;}.b,.c{fill:none;}.d{clip-path:url(#a);}.e{clip-path:url(#b);}.f,.h{fill:#ffed80;}.g,.h{stroke:none;}</style><clipPath id="a"><circle class="a" cx="83.5" cy="83.5" r="83.5" transform="translate(308 3189)"/></clipPath><clipPath id="b"><rect class="b" width="327" height="185"/></clipPath></defs><g transform="translate(-1433 -728)"><g class="c" transform="translate(1433 728)"><path class="g" d="M92,0A92,92,0,1,1,0,92,92,92,0,0,1,92,0Z"/><path class="h" d="M 92 1 C 85.82511901855469 1 79.65440368652344 1.622024536132812 73.65926361083984 2.84881591796875 C 67.81700134277344 4.0443115234375 62.07038116455078 5.828170776367188 56.57900238037109 8.150802612304688 C 51.18708801269531 10.43141174316406 45.98652648925781 13.25419616699219 41.12173461914062 16.54078674316406 C 36.30290222167969 19.79631042480469 31.77146911621094 23.53509521484375 27.65328979492188 27.65328979492188 C 23.53509521484375 31.77146911621094 19.79631042480469 36.30290222167969 16.54078674316406 41.12173461914062 C 13.25419616699219 45.98652648925781 10.43141174316406 51.18708801269531 8.150802612304688 56.57900238037109 C 5.828170776367188 62.07038116455078 4.0443115234375 67.81700134277344 2.84881591796875 73.65926361083984 C 1.622024536132812 79.65440368652344 1 85.82511901855469 1 92 C 1 98.17488098144531 1.622024536132812 104.3455963134766 2.84881591796875 110.3407363891602 C 4.0443115234375 116.1829986572266 5.828170776367188 121.9296188354492 8.150802612304688 127.4210052490234 C 10.43141174316406 132.8128967285156 13.25419616699219 138.0134735107422 16.54078674316406 142.8782653808594 C 19.79631042480469 147.6970977783203 23.53509521484375 152.228515625 27.65328979492188 156.3467102050781 C 31.77146911621094 160.4649047851562 36.30290222167969 164.2036895751953 41.12173461914062 167.4592132568359 C 45.98652648925781 170.7458038330078 51.18708801269531 173.5685882568359 56.57900238037109 175.8491973876953 C 62.07038116455078 178.1718292236328 67.81700134277344 179.9556884765625 73.65926361083984 181.1511840820312 C 79.65440368652344 182.3779754638672 85.82511901855469 183 92 183 C 98.17488098144531 183 104.3455963134766 182.3779754638672 110.3407363891602 181.1511840820312 C 116.1829986572266 179.9556884765625 121.9296188354492 178.1718292236328 127.4210052490234 175.8491973876953 C 132.8128967285156 173.5685882568359 138.0134735107422 170.7458038330078 142.8782653808594 167.4592132568359 C 147.6970977783203 164.2036895751953 152.228515625 160.4649047851562 156.3467102050781 156.3467102050781 C 160.4649047851562 152.228515625 164.2036895751953 147.6970977783203 167.4592132568359 142.8782653808594 C 170.7458038330078 138.0134735107422 173.5685882568359 132.8128967285156 175.8491973876953 127.4210052490234 C 178.1718292236328 121.9296188354492 179.9556884765625 116.1829986572266 181.1511840820312 110.3407363891602 C 182.3779754638672 104.3455963134766 183 98.17488098144531 183 92 C 183 85.82511901855469 182.3779754638672 79.65440368652344 181.1511840820312 73.65926361083984 C 179.9556884765625 67.81700134277344 178.1718292236328 62.07038116455078 175.8491973876953 56.57900238037109 C 173.5685882568359 51.18708801269531 170.7458038330078 45.98652648925781 167.4592132568359 41.12173461914062 C 164.2036895751953 36.30290222167969 160.4649047851562 31.77146911621094 156.3467102050781 27.65328979492188 C 152.228515625 23.53509521484375 147.6970977783203 19.79631042480469 142.8782653808594 16.54078674316406 C 138.0134735107422 13.25419616699219 132.8128967285156 10.43141174316406 127.4210052490234 8.150802612304688 C 121.9296188354492 5.828170776367188 116.1829986572266 4.0443115234375 110.3407363891602 2.84881591796875 C 104.3455963134766 1.622024536132812 98.17488098144531 1 92 1 M 92 0 C 142.8101959228516 0 184 41.18980407714844 184 92 C 184 142.8101959228516 142.8101959228516 184 92 184 C 41.18980407714844 184 0 142.8101959228516 0 92 C 0 41.18980407714844 41.18980407714844 0 92 0 Z"/></g><g class="d" transform="translate(1133 -2453)"><g class="e" transform="matrix(0.985, 0.174, -0.174, 0.985, 280.546, 3164.014)"><g transform="translate(-440 -3347)"><circle class="f" cx="3.5" cy="3.5" r="3.5" transform="translate(440 3347)"/></g><g transform="translate(-429 -3347)"><circle class="f" cx="3.5" cy="3.5" r="3.5" transform="translate(440 3347)"/></g><g transform="translate(-418 -3347)"><circle class="f" cx="3.5" cy="3.5" r="3.5" transform="translate(440 3347)"/></g><g transform="translate(-407 -3347)"><circle class="f" cx="3.5" cy="3.5" r="3.5" transform="translate(440 3347)"/></g><g transform="translate(-396 -3347)"><circle class="f" cx="3.5" cy="3.5" r="3.5" transform="translate(440 3347)"/></g><g transform="translate(-385 -3347)"><circle class="f" cx="3.5" cy="3.5" r="3.5" transform="translate(440 3347)"/></g><g transform="translate(-374 -3347)"><circle class="f" cx="3.5" cy="3.5" r="3.5" transform="translate(440 3347)"/></g><g transform="translate(-363 -3347)"><circle class="f" cx="3.5" cy="3.5" r="3.5" transform="translate(440 3347)"/></g><g transform="translate(-352 -3347)"><circle class="f" cx="3.5" cy="3.5" r="3.5" transform="translate(440 3347)"/></g><g transform="translate(-341 -3347)"><circle class="f" cx="3.5" cy="3.5" r="3.5" transform="translate(440 3347)"/></g><g transform="translate(-330 -3347)"><circle class="f" cx="3.5" cy="3.5" r="3.5" transform="translate(440 3347)"/></g><g transform="translate(-319 -3347)"><circle class="f" cx="3.5" cy="3.5" r="3.5" transform="translate(440 3347)"/></g><g transform="translate(-308 -3347)"><circle class="f" cx="3.5" cy="3.5" r="3.5" transform="translate(440 3347)"/></g><g transform="translate(-297 -3347)"><circle class="f" cx="3.5" cy="3.5" r="3.5" transform="translate(440 3347)"/></g><g transform="translate(-286 -3347)"><circle class="f" cx="3.5" cy="3.5" r="3.5" transform="translate(440 3347)"/></g><g transform="translate(-275 -3347)"><circle class="f" cx="3.5" cy="3.5" r="3.5" transform="translate(440 3347)"/></g><g transform="translate(-264 -3347)"><circle class="f" cx="3.5" cy="3.5" r="3.5" transform="translate(440 3347)"/></g><g transform="translate(-253 -3347)"><circle class="f" cx="3.5" cy="3.5" r="3.5" transform="translate(440 3347)"/></g><g transform="translate(-242 -3347)"><circle class="f" cx="3.5" cy="3.5" r="3.5" transform="translate(440 3347)"/></g><g transform="translate(-231 -3347)"><circle class="f" cx="3.5" cy="3.5" r="3.5" transform="translate(440 3347)"/></g><g transform="translate(-220 -3347)"><circle class="f" cx="3.5" cy="3.5" r="3.5" transform="translate(440 3347)"/></g><g transform="translate(-209 -3347)"><circle class="f" cx="3.5" cy="3.5" r="3.5" transform="translate(440 3347)"/></g><g transform="translate(-198 -3347)"><circle class="f" cx="3.5" cy="3.5" r="3.5" transform="translate(440 3347)"/></g><g transform="translate(-187 -3347)"><circle class="f" cx="3.5" cy="3.5" r="3.5" transform="translate(440 3347)"/></g><g transform="translate(-176 -3347)"><circle class="f" cx="3.5" cy="3.5" r="3.5" transform="translate(440 3347)"/></g><g transform="translate(-165 -3347)"><circle class="f" cx="3.5" cy="3.5" r="3.5" transform="translate(440 3347)"/></g><g transform="translate(-154 -3347)"><circle class="f" cx="3.5" cy="3.5" r="3.5" transform="translate(440 3347)"/></g><g transform="translate(-143 -3347)"><circle class="f" cx="3.5" cy="3.5" r="3.5" transform="translate(440 3347)"/></g><g transform="translate(-132 -3347)"><circle class="f" cx="3.5" cy="3.5" r="3.5" transform="translate(440 3347)"/></g><g transform="translate(-121 -3347)"><circle class="f" cx="3.5" cy="3.5" r="3.5" transform="translate(440 3347)"/></g><g transform="translate(-440 -3336)"><circle class="f" cx="3.5" cy="3.5" r="3.5" transform="translate(440 3347)"/></g><g transform="translate(-429 -3336)"><circle class="f" cx="3.5" cy="3.5" r="3.5" transform="translate(440 3347)"/></g><g transform="translate(-418 -3336)"><circle class="f" cx="3.5" cy="3.5" r="3.5" transform="translate(440 3347)"/></g><g transform="translate(-407 -3336)"><circle class="f" cx="3.5" cy="3.5" r="3.5" transform="translate(440 3347)"/></g><g transform="translate(-396 -3336)"><circle class="f" cx="3.5" cy="3.5" r="3.5" transform="translate(440 3347)"/></g><g transform="translate(-385 -3336)"><circle class="f" cx="3.5" cy="3.5" r="3.5" transform="translate(440 3347)"/></g><g transform="translate(-374 -3336)"><circle class="f" cx="3.5" cy="3.5" r="3.5" transform="translate(440 3347)"/></g><g transform="translate(-363 -3336)"><circle class="f" cx="3.5" cy="3.5" r="3.5" transform="translate(440 3347)"/></g><g transform="translate(-352 -3336)"><circle class="f" cx="3.5" cy="3.5" r="3.5" transform="translate(440 3347)"/></g><g transform="translate(-341 -3336)"><circle class="f" cx="3.5" cy="3.5" r="3.5" transform="translate(440 3347)"/></g><g transform="translate(-330 -3336)"><circle class="f" cx="3.5" cy="3.5" r="3.5" transform="translate(440 3347)"/></g><g transform="translate(-319 -3336)"><circle class="f" cx="3.5" cy="3.5" r="3.5" transform="translate(440 3347)"/></g><g transform="translate(-308 -3336)"><circle class="f" cx="3.5" cy="3.5" r="3.5" transform="translate(440 3347)"/></g><g transform="translate(-297 -3336)"><circle class="f" cx="3.5" cy="3.5" r="3.5" transform="translate(440 3347)"/></g><g transform="translate(-286 -3336)"><circle class="f" cx="3.5" cy="3.5" r="3.5" transform="translate(440 3347)"/></g><g transform="translate(-275 -3336)"><circle class="f" cx="3.5" cy="3.5" r="3.5" transform="translate(440 3347)"/></g><g transform="translate(-264 -3336)"><circle class="f" cx="3.5" cy="3.5" r="3.5" transform="translate(440 3347)"/></g><g transform="translate(-253 -3336)"><circle class="f" cx="3.5" cy="3.5" r="3.5" transform="translate(440 3347)"/></g><g transform="translate(-242 -3336)"><circle class="f" cx="3.5" cy="3.5" r="3.5" transform="translate(440 3347)"/></g><g transform="translate(-231 -3336)"><circle class="f" cx="3.5" cy="3.5" r="3.5" transform="translate(440 3347)"/></g><g transform="translate(-220 -3336)"><circle class="f" cx="3.5" cy="3.5" r="3.5" transform="translate(440 3347)"/></g><g transform="translate(-209 -3336)"><circle class="f" cx="3.5" cy="3.5" r="3.5" transform="translate(440 3347)"/></g><g transform="translate(-198 -3336)"><circle class="f" cx="3.5" cy="3.5" r="3.5" transform="translate(440 3347)"/></g><g transform="translate(-187 -3336)"><circle class="f" cx="3.5" cy="3.5" r="3.5" transform="translate(440 3347)"/></g><g transform="translate(-176 -3336)"><circle class="f" cx="3.5" cy="3.5" r="3.5" transform="translate(440 3347)"/></g><g transform="translate(-165 -3336)"><circle class="f" cx="3.5" cy="3.5" r="3.5" transform="translate(440 3347)"/></g><g transform="translate(-154 -3336)"><circle class="f" cx="3.5" cy="3.5" r="3.5" transform="translate(440 3347)"/></g><g transform="translate(-143 -3336)"><circle class="f" cx="3.5" cy="3.5" r="3.5" transform="translate(440 3347)"/></g><g transform="translate(-132 -3336)"><circle class="f" cx="3.5" cy="3.5" r="3.5" transform="translate(440 3347)"/></g><g transform="translate(-121 -3336)"><circle class="f" cx="3.5" cy="3.5" r="3.5" transform="translate(440 3347)"/></g><g transform="translate(-440 -3325)"><circle class="f" cx="3.5" cy="3.5" r="3.5" transform="translate(440 3347)"/></g><g transform="translate(-429 -3325)"><circle class="f" cx="3.5" cy="3.5" r="3.5" transform="translate(440 3347)"/></g><g transform="translate(-418 -3325)"><circle class="f" cx="3.5" cy="3.5" r="3.5" transform="translate(440 3347)"/></g><g transform="translate(-407 -3325)"><circle class="f" cx="3.5" cy="3.5" r="3.5" transform="translate(440 3347)"/></g><g transform="translate(-396 -3325)"><circle class="f" cx="3.5" cy="3.5" r="3.5" transform="translate(440 3347)"/></g><g transform="translate(-385 -3325)"><circle class="f" cx="3.5" cy="3.5" r="3.5" transform="translate(440 3347)"/></g><g transform="translate(-374 -3325)"><circle class="f" cx="3.5" cy="3.5" r="3.5" transform="translate(440 3347)"/></g><g transform="translate(-363 -3325)"><circle class="f" cx="3.5" cy="3.5" r="3.5" transform="translate(440 3347)"/></g><g transform="translate(-352 -3325)"><circle class="f" cx="3.5" cy="3.5" r="3.5" transform="translate(440 3347)"/></g><g transform="translate(-341 -3325)"><circle class="f" cx="3.5" cy="3.5" r="3.5" transform="translate(440 3347)"/></g><g transform="translate(-330 -3325)"><circle class="f" cx="3.5" cy="3.5" r="3.5" transform="translate(440 3347)"/></g><g transform="translate(-319 -3325)"><circle class="f" cx="3.5" cy="3.5" r="3.5" transform="translate(440 3347)"/></g><g transform="translate(-308 -3325)"><circle class="f" cx="3.5" cy="3.5" r="3.5" transform="translate(440 3347)"/></g><g transform="translate(-297 -3325)"><circle class="f" cx="3.5" cy="3.5" r="3.5" transform="translate(440 3347)"/></g><g transform="translate(-286 -3325)"><circle class="f" cx="3.5" cy="3.5" r="3.5" transform="translate(440 3347)"/></g><g transform="translate(-275 -3325)"><circle class="f" cx="3.5" cy="3.5" r="3.5" transform="translate(440 3347)"/></g><g transform="translate(-264 -3325)"><circle class="f" cx="3.5" cy="3.5" r="3.5" transform="translate(440 3347)"/></g><g transform="translate(-253 -3325)"><circle class="f" cx="3.5" cy="3.5" r="3.5" transform="translate(440 3347)"/></g><g transform="translate(-242 -3325)"><circle class="f" cx="3.5" cy="3.5" r="3.5" transform="translate(440 3347)"/></g><g transform="translate(-231 -3325)"><circle class="f" cx="3.5" cy="3.5" r="3.5" transform="translate(440 3347)"/></g><g transform="translate(-220 -3325)"><circle class="f" cx="3.5" cy="3.5" r="3.5" transform="translate(440 3347)"/></g><g transform="translate(-209 -3325)"><circle class="f" cx="3.5" cy="3.5" r="3.5" transform="translate(440 3347)"/></g><g transform="translate(-198 -3325)"><circle class="f" cx="3.5" cy="3.5" r="3.5" transform="translate(440 3347)"/></g><g transform="translate(-187 -3325)"><circle class="f" cx="3.5" cy="3.5" r="3.5" transform="translate(440 3347)"/></g><g transform="translate(-176 -3325)"><circle class="f" cx="3.5" cy="3.5" r="3.5" transform="translate(440 3347)"/></g><g transform="translate(-165 -3325)"><circle class="f" cx="3.5" cy="3.5" r="3.5" transform="translate(440 3347)"/></g><g transform="translate(-154 -3325)"><circle class="f" cx="3.5" cy="3.5" r="3.5" transform="translate(440 3347)"/></g><g transform="translate(-143 -3325)"><circle class="f" cx="3.5" cy="3.5" r="3.5" transform="translate(440 3347)"/></g><g transform="translate(-132 -3325)"><circle class="f" cx="3.5" cy="3.5" r="3.5" transform="translate(440 3347)"/></g><g transform="translate(-121 -3325)"><circle class="f" cx="3.5" cy="3.5" r="3.5" transform="translate(440 3347)"/></g><g transform="translate(-440 -3314)"><circle class="f" cx="3.5" cy="3.5" r="3.5" transform="translate(440 3347)"/></g><g transform="translate(-429 -3314)"><circle class="f" cx="3.5" cy="3.5" r="3.5" transform="translate(440 3347)"/></g><g transform="translate(-418 -3314)"><circle class="f" cx="3.5" cy="3.5" r="3.5" transform="translate(440 3347)"/></g><g transform="translate(-407 -3314)"><circle class="f" cx="3.5" cy="3.5" r="3.5" transform="translate(440 3347)"/></g><g transform="translate(-396 -3314)"><circle class="f" cx="3.5" cy="3.5" r="3.5" transform="translate(440 3347)"/></g><g transform="translate(-385 -3314)"><circle class="f" cx="3.5" cy="3.5" r="3.5" transform="translate(440 3347)"/></g><g transform="translate(-374 -3314)"><circle class="f" cx="3.5" cy="3.5" r="3.5" transform="translate(440 3347)"/></g><g transform="translate(-363 -3314)"><circle class="f" cx="3.5" cy="3.5" r="3.5" transform="translate(440 3347)"/></g><g transform="translate(-352 -3314)"><circle class="f" cx="3.5" cy="3.5" r="3.5" transform="translate(440 3347)"/></g><g transform="translate(-341 -3314)"><circle class="f" cx="3.5" cy="3.5" r="3.5" transform="translate(440 3347)"/></g><g transform="translate(-330 -3314)"><circle class="f" cx="3.5" cy="3.5" r="3.5" transform="translate(440 3347)"/></g><g transform="translate(-319 -3314)"><circle class="f" cx="3.5" cy="3.5" r="3.5" transform="translate(440 3347)"/></g><g transform="translate(-308 -3314)"><circle class="f" cx="3.5" cy="3.5" r="3.5" transform="translate(440 3347)"/></g><g transform="translate(-297 -3314)"><circle class="f" cx="3.5" cy="3.5" r="3.5" transform="translate(440 3347)"/></g><g transform="translate(-286 -3314)"><circle class="f" cx="3.5" cy="3.5" r="3.5" transform="translate(440 3347)"/></g><g transform="translate(-275 -3314)"><circle class="f" cx="3.5" cy="3.5" r="3.5" transform="translate(440 3347)"/></g><g transform="translate(-264 -3314)"><circle class="f" cx="3.5" cy="3.5" r="3.5" transform="translate(440 3347)"/></g><g transform="translate(-253 -3314)"><circle class="f" cx="3.5" cy="3.5" r="3.5" transform="translate(440 3347)"/></g><g transform="translate(-242 -3314)"><circle class="f" cx="3.5" cy="3.5" r="3.5" transform="translate(440 3347)"/></g><g transform="translate(-231 -3314)"><circle class="f" cx="3.5" cy="3.5" r="3.5" transform="translate(440 3347)"/></g><g transform="translate(-220 -3314)"><circle class="f" cx="3.5" cy="3.5" r="3.5" transform="translate(440 3347)"/></g><g transform="translate(-209 -3314)"><circle class="f" cx="3.5" cy="3.5" r="3.5" transform="translate(440 3347)"/></g><g transform="translate(-198 -3314)"><circle class="f" cx="3.5" cy="3.5" r="3.5" transform="translate(440 3347)"/></g><g transform="translate(-187 -3314)"><circle class="f" cx="3.5" cy="3.5" r="3.5" transform="translate(440 3347)"/></g><g transform="translate(-176 -3314)"><circle class="f" cx="3.5" cy="3.5" r="3.5" transform="translate(440 3347)"/></g><g transform="translate(-165 -3314)"><circle class="f" cx="3.5" cy="3.5" r="3.5" transform="translate(440 3347)"/></g><g transform="translate(-154 -3314)"><circle class="f" cx="3.5" cy="3.5" r="3.5" transform="translate(440 3347)"/></g><g transform="translate(-143 -3314)"><circle class="f" cx="3.5" cy="3.5" r="3.5" transform="translate(440 3347)"/></g><g transform="translate(-132 -3314)"><circle class="f" cx="3.5" cy="3.5" r="3.5" transform="translate(440 3347)"/></g><g transform="translate(-121 -3314)"><circle class="f" cx="3.5" cy="3.5" r="3.5" transform="translate(440 3347)"/></g><g transform="translate(-440 -3303)"><circle class="f" cx="3.5" cy="3.5" r="3.5" transform="translate(440 3347)"/></g><g transform="translate(-429 -3303)"><circle class="f" cx="3.5" cy="3.5" r="3.5" transform="translate(440 3347)"/></g><g transform="translate(-418 -3303)"><circle class="f" cx="3.5" cy="3.5" r="3.5" transform="translate(440 3347)"/></g><g transform="translate(-407 -3303)"><circle class="f" cx="3.5" cy="3.5" r="3.5" transform="translate(440 3347)"/></g><g transform="translate(-396 -3303)"><circle class="f" cx="3.5" cy="3.5" r="3.5" transform="translate(440 3347)"/></g><g transform="translate(-385 -3303)"><circle class="f" cx="3.5" cy="3.5" r="3.5" transform="translate(440 3347)"/></g><g transform="translate(-374 -3303)"><circle class="f" cx="3.5" cy="3.5" r="3.5" transform="translate(440 3347)"/></g><g transform="translate(-363 -3303)"><circle class="f" cx="3.5" cy="3.5" r="3.5" transform="translate(440 3347)"/></g><g transform="translate(-352 -3303)"><circle class="f" cx="3.5" cy="3.5" r="3.5" transform="translate(440 3347)"/></g><g transform="translate(-341 -3303)"><circle class="f" cx="3.5" cy="3.5" r="3.5" transform="translate(440 3347)"/></g><g transform="translate(-330 -3303)"><circle class="f" cx="3.5" cy="3.5" r="3.5" transform="translate(440 3347)"/></g><g transform="translate(-319 -3303)"><circle class="f" cx="3.5" cy="3.5" r="3.5" transform="translate(440 3347)"/></g><g transform="translate(-308 -3303)"><circle class="f" cx="3.5" cy="3.5" r="3.5" transform="translate(440 3347)"/></g><g transform="translate(-297 -3303)"><circle class="f" cx="3.5" cy="3.5" r="3.5" transform="translate(440 3347)"/></g><g transform="translate(-286 -3303)"><circle class="f" cx="3.5" cy="3.5" r="3.5" transform="translate(440 3347)"/></g><g transform="translate(-275 -3303)"><circle class="f" cx="3.5" cy="3.5" r="3.5" transform="translate(440 3347)"/></g><g transform="translate(-264 -3303)"><circle class="f" cx="3.5" cy="3.5" r="3.5" transform="translate(440 3347)"/></g><g transform="translate(-253 -3303)"><circle class="f" cx="3.5" cy="3.5" r="3.5" transform="translate(440 3347)"/></g><g transform="translate(-242 -3303)"><circle class="f" cx="3.5" cy="3.5" r="3.5" transform="translate(440 3347)"/></g><g transform="translate(-231 -3303)"><circle class="f" cx="3.5" cy="3.5" r="3.5" transform="translate(440 3347)"/></g><g transform="translate(-220 -3303)"><circle class="f" cx="3.5" cy="3.5" r="3.5" transform="translate(440 3347)"/></g><g transform="translate(-209 -3303)"><circle class="f" cx="3.5" cy="3.5" r="3.5" transform="translate(440 3347)"/></g><g transform="translate(-198 -3303)"><circle class="f" cx="3.5" cy="3.5" r="3.5" transform="translate(440 3347)"/></g><g transform="translate(-187 -3303)"><circle class="f" cx="3.5" cy="3.5" r="3.5" transform="translate(440 3347)"/></g><g transform="translate(-176 -3303)"><circle class="f" cx="3.5" cy="3.5" r="3.5" transform="translate(440 3347)"/></g><g transform="translate(-165 -3303)"><circle class="f" cx="3.5" cy="3.5" r="3.5" transform="translate(440 3347)"/></g><g transform="translate(-154 -3303)"><circle class="f" cx="3.5" cy="3.5" r="3.5" transform="translate(440 3347)"/></g><g transform="translate(-143 -3303)"><circle class="f" cx="3.5" cy="3.5" r="3.5" transform="translate(440 3347)"/></g><g transform="translate(-132 -3303)"><circle class="f" cx="3.5" cy="3.5" r="3.5" transform="translate(440 3347)"/></g><g transform="translate(-121 -3303)"><circle class="f" cx="3.5" cy="3.5" r="3.5" transform="translate(440 3347)"/></g><g transform="translate(-440 -3292)"><circle class="f" cx="3.5" cy="3.5" r="3.5" transform="translate(440 3347)"/></g><g transform="translate(-429 -3292)"><circle class="f" cx="3.5" cy="3.5" r="3.5" transform="translate(440 3347)"/></g><g transform="translate(-418 -3292)"><circle class="f" cx="3.5" cy="3.5" r="3.5" transform="translate(440 3347)"/></g><g transform="translate(-407 -3292)"><circle class="f" cx="3.5" cy="3.5" r="3.5" transform="translate(440 3347)"/></g><g transform="translate(-396 -3292)"><circle class="f" cx="3.5" cy="3.5" r="3.5" transform="translate(440 3347)"/></g><g transform="translate(-385 -3292)"><circle class="f" cx="3.5" cy="3.5" r="3.5" transform="translate(440 3347)"/></g><g transform="translate(-374 -3292)"><circle class="f" cx="3.5" cy="3.5" r="3.5" transform="translate(440 3347)"/></g><g transform="translate(-363 -3292)"><circle class="f" cx="3.5" cy="3.5" r="3.5" transform="translate(440 3347)"/></g><g transform="translate(-352 -3292)"><circle class="f" cx="3.5" cy="3.5" r="3.5" transform="translate(440 3347)"/></g><g transform="translate(-341 -3292)"><circle class="f" cx="3.5" cy="3.5" r="3.5" transform="translate(440 3347)"/></g><g transform="translate(-330 -3292)"><circle class="f" cx="3.5" cy="3.5" r="3.5" transform="translate(440 3347)"/></g><g transform="translate(-319 -3292)"><circle class="f" cx="3.5" cy="3.5" r="3.5" transform="translate(440 3347)"/></g><g transform="translate(-308 -3292)"><circle class="f" cx="3.5" cy="3.5" r="3.5" transform="translate(440 3347)"/></g><g transform="translate(-297 -3292)"><circle class="f" cx="3.5" cy="3.5" r="3.5" transform="translate(440 3347)"/></g><g transform="translate(-286 -3292)"><circle class="f" cx="3.5" cy="3.5" r="3.5" transform="translate(440 3347)"/></g><g transform="translate(-275 -3292)"><circle class="f" cx="3.5" cy="3.5" r="3.5" transform="translate(440 3347)"/></g><g transform="translate(-264 -3292)"><circle class="f" cx="3.5" cy="3.5" r="3.5" transform="translate(440 3347)"/></g><g transform="translate(-253 -3292)"><circle class="f" cx="3.5" cy="3.5" r="3.5" transform="translate(440 3347)"/></g><g transform="translate(-242 -3292)"><circle class="f" cx="3.5" cy="3.5" r="3.5" transform="translate(440 3347)"/></g><g transform="translate(-231 -3292)"><circle class="f" cx="3.5" cy="3.5" r="3.5" transform="translate(440 3347)"/></g><g transform="translate(-220 -3292)"><circle class="f" cx="3.5" cy="3.5" r="3.5" transform="translate(440 3347)"/></g><g transform="translate(-209 -3292)"><circle class="f" cx="3.5" cy="3.5" r="3.5" transform="translate(440 3347)"/></g><g transform="translate(-198 -3292)"><circle class="f" cx="3.5" cy="3.5" r="3.5" transform="translate(440 3347)"/></g><g transform="translate(-187 -3292)"><circle class="f" cx="3.5" cy="3.5" r="3.5" transform="translate(440 3347)"/></g><g transform="translate(-176 -3292)"><circle class="f" cx="3.5" cy="3.5" r="3.5" transform="translate(440 3347)"/></g><g transform="translate(-165 -3292)"><circle class="f" cx="3.5" cy="3.5" r="3.5" transform="translate(440 3347)"/></g><g transform="translate(-154 -3292)"><circle class="f" cx="3.5" cy="3.5" r="3.5" transform="translate(440 3347)"/></g><g transform="translate(-143 -3292)"><circle class="f" cx="3.5" cy="3.5" r="3.5" transform="translate(440 3347)"/></g><g transform="translate(-132 -3292)"><circle class="f" cx="3.5" cy="3.5" r="3.5" transform="translate(440 3347)"/></g><g transform="translate(-121 -3292)"><circle class="f" cx="3.5" cy="3.5" r="3.5" transform="translate(440 3347)"/></g><g transform="translate(-440 -3281)"><circle class="f" cx="3.5" cy="3.5" r="3.5" transform="translate(440 3347)"/></g><g transform="translate(-429 -3281)"><circle class="f" cx="3.5" cy="3.5" r="3.5" transform="translate(440 3347)"/></g><g transform="translate(-418 -3281)"><circle class="f" cx="3.5" cy="3.5" r="3.5" transform="translate(440 3347)"/></g><g transform="translate(-407 -3281)"><circle class="f" cx="3.5" cy="3.5" r="3.5" transform="translate(440 3347)"/></g><g transform="translate(-396 -3281)"><circle class="f" cx="3.5" cy="3.5" r="3.5" transform="translate(440 3347)"/></g><g transform="translate(-385 -3281)"><circle class="f" cx="3.5" cy="3.5" r="3.5" transform="translate(440 3347)"/></g><g transform="translate(-374 -3281)"><circle class="f" cx="3.5" cy="3.5" r="3.5" transform="translate(440 3347)"/></g><g transform="translate(-363 -3281)"><circle class="f" cx="3.5" cy="3.5" r="3.5" transform="translate(440 3347)"/></g><g transform="translate(-352 -3281)"><circle class="f" cx="3.5" cy="3.5" r="3.5" transform="translate(440 3347)"/></g><g transform="translate(-341 -3281)"><circle class="f" cx="3.5" cy="3.5" r="3.5" transform="translate(440 3347)"/></g><g transform="translate(-330 -3281)"><circle class="f" cx="3.5" cy="3.5" r="3.5" transform="translate(440 3347)"/></g><g transform="translate(-319 -3281)"><circle class="f" cx="3.5" cy="3.5" r="3.5" transform="translate(440 3347)"/></g><g transform="translate(-308 -3281)"><circle class="f" cx="3.5" cy="3.5" r="3.5" transform="translate(440 3347)"/></g><g transform="translate(-297 -3281)"><circle class="f" cx="3.5" cy="3.5" r="3.5" transform="translate(440 3347)"/></g><g transform="translate(-286 -3281)"><circle class="f" cx="3.5" cy="3.5" r="3.5" transform="translate(440 3347)"/></g><g transform="translate(-275 -3281)"><circle class="f" cx="3.5" cy="3.5" r="3.5" transform="translate(440 3347)"/></g><g transform="translate(-264 -3281)"><circle class="f" cx="3.5" cy="3.5" r="3.5" transform="translate(440 3347)"/></g><g transform="translate(-253 -3281)"><circle class="f" cx="3.5" cy="3.5" r="3.5" transform="translate(440 3347)"/></g><g transform="translate(-242 -3281)"><circle class="f" cx="3.5" cy="3.5" r="3.5" transform="translate(440 3347)"/></g><g transform="translate(-231 -3281)"><circle class="f" cx="3.5" cy="3.5" r="3.5" transform="translate(440 3347)"/></g><g transform="translate(-220 -3281)"><circle class="f" cx="3.5" cy="3.5" r="3.5" transform="translate(440 3347)"/></g><g transform="translate(-209 -3281)"><circle class="f" cx="3.5" cy="3.5" r="3.5" transform="translate(440 3347)"/></g><g transform="translate(-198 -3281)"><circle class="f" cx="3.5" cy="3.5" r="3.5" transform="translate(440 3347)"/></g><g transform="translate(-187 -3281)"><circle class="f" cx="3.5" cy="3.5" r="3.5" transform="translate(440 3347)"/></g><g transform="translate(-176 -3281)"><circle class="f" cx="3.5" cy="3.5" r="3.5" transform="translate(440 3347)"/></g><g transform="translate(-165 -3281)"><circle class="f" cx="3.5" cy="3.5" r="3.5" transform="translate(440 3347)"/></g><g transform="translate(-154 -3281)"><circle class="f" cx="3.5" cy="3.5" r="3.5" transform="translate(440 3347)"/></g><g transform="translate(-143 -3281)"><circle class="f" cx="3.5" cy="3.5" r="3.5" transform="translate(440 3347)"/></g><g transform="translate(-132 -3281)"><circle class="f" cx="3.5" cy="3.5" r="3.5" transform="translate(440 3347)"/></g><g transform="translate(-121 -3281)"><circle class="f" cx="3.5" cy="3.5" r="3.5" transform="translate(440 3347)"/></g><g transform="translate(-440 -3270)"><circle class="f" cx="3.5" cy="3.5" r="3.5" transform="translate(440 3347)"/></g><g transform="translate(-429 -3270)"><circle class="f" cx="3.5" cy="3.5" r="3.5" transform="translate(440 3347)"/></g><g transform="translate(-418 -3270)"><circle class="f" cx="3.5" cy="3.5" r="3.5" transform="translate(440 3347)"/></g><g transform="translate(-407 -3270)"><circle class="f" cx="3.5" cy="3.5" r="3.5" transform="translate(440 3347)"/></g><g transform="translate(-396 -3270)"><circle class="f" cx="3.5" cy="3.5" r="3.5" transform="translate(440 3347)"/></g><g transform="translate(-385 -3270)"><circle class="f" cx="3.5" cy="3.5" r="3.5" transform="translate(440 3347)"/></g><g transform="translate(-374 -3270)"><circle class="f" cx="3.5" cy="3.5" r="3.5" transform="translate(440 3347)"/></g><g transform="translate(-363 -3270)"><circle class="f" cx="3.5" cy="3.5" r="3.5" transform="translate(440 3347)"/></g><g transform="translate(-352 -3270)"><circle class="f" cx="3.5" cy="3.5" r="3.5" transform="translate(440 3347)"/></g><g transform="translate(-341 -3270)"><circle class="f" cx="3.5" cy="3.5" r="3.5" transform="translate(440 3347)"/></g><g transform="translate(-330 -3270)"><circle class="f" cx="3.5" cy="3.5" r="3.5" transform="translate(440 3347)"/></g><g transform="translate(-319 -3270)"><circle class="f" cx="3.5" cy="3.5" r="3.5" transform="translate(440 3347)"/></g><g transform="translate(-308 -3270)"><circle class="f" cx="3.5" cy="3.5" r="3.5" transform="translate(440 3347)"/></g><g transform="translate(-297 -3270)"><circle class="f" cx="3.5" cy="3.5" r="3.5" transform="translate(440 3347)"/></g><g transform="translate(-286 -3270)"><circle class="f" cx="3.5" cy="3.5" r="3.5" transform="translate(440 3347)"/></g><g transform="translate(-275 -3270)"><circle class="f" cx="3.5" cy="3.5" r="3.5" transform="translate(440 3347)"/></g><g transform="translate(-264 -3270)"><circle class="f" cx="3.5" cy="3.5" r="3.5" transform="translate(440 3347)"/></g><g transform="translate(-253 -3270)"><circle class="f" cx="3.5" cy="3.5" r="3.5" transform="translate(440 3347)"/></g><g transform="translate(-242 -3270)"><circle class="f" cx="3.5" cy="3.5" r="3.5" transform="translate(440 3347)"/></g><g transform="translate(-231 -3270)"><circle class="f" cx="3.5" cy="3.5" r="3.5" transform="translate(440 3347)"/></g><g transform="translate(-220 -3270)"><circle class="f" cx="3.5" cy="3.5" r="3.5" transform="translate(440 3347)"/></g><g transform="translate(-209 -3270)"><circle class="f" cx="3.5" cy="3.5" r="3.5" transform="translate(440 3347)"/></g><g transform="translate(-198 -3270)"><circle class="f" cx="3.5" cy="3.5" r="3.5" transform="translate(440 3347)"/></g><g transform="translate(-187 -3270)"><circle class="f" cx="3.5" cy="3.5" r="3.5" transform="translate(440 3347)"/></g><g transform="translate(-176 -3270)"><circle class="f" cx="3.5" cy="3.5" r="3.5" transform="translate(440 3347)"/></g><g transform="translate(-165 -3270)"><circle class="f" cx="3.5" cy="3.5" r="3.5" transform="translate(440 3347)"/></g><g transform="translate(-154 -3270)"><circle class="f" cx="3.5" cy="3.5" r="3.5" transform="translate(440 3347)"/></g><g transform="translate(-143 -3270)"><circle class="f" cx="3.5" cy="3.5" r="3.5" transform="translate(440 3347)"/></g><g transform="translate(-132 -3270)"><circle class="f" cx="3.5" cy="3.5" r="3.5" transform="translate(440 3347)"/></g><g transform="translate(-121 -3270)"><circle class="f" cx="3.5" cy="3.5" r="3.5" transform="translate(440 3347)"/></g><g transform="translate(-440 -3259)"><circle class="f" cx="3.5" cy="3.5" r="3.5" transform="translate(440 3347)"/></g><g transform="translate(-429 -3259)"><circle class="f" cx="3.5" cy="3.5" r="3.5" transform="translate(440 3347)"/></g><g transform="translate(-418 -3259)"><circle class="f" cx="3.5" cy="3.5" r="3.5" transform="translate(440 3347)"/></g><g transform="translate(-407 -3259)"><circle class="f" cx="3.5" cy="3.5" r="3.5" transform="translate(440 3347)"/></g><g transform="translate(-396 -3259)"><circle class="f" cx="3.5" cy="3.5" r="3.5" transform="translate(440 3347)"/></g><g transform="translate(-385 -3259)"><circle class="f" cx="3.5" cy="3.5" r="3.5" transform="translate(440 3347)"/></g><g transform="translate(-374 -3259)"><circle class="f" cx="3.5" cy="3.5" r="3.5" transform="translate(440 3347)"/></g><g transform="translate(-363 -3259)"><circle class="f" cx="3.5" cy="3.5" r="3.5" transform="translate(440 3347)"/></g><g transform="translate(-352 -3259)"><circle class="f" cx="3.5" cy="3.5" r="3.5" transform="translate(440 3347)"/></g><g transform="translate(-341 -3259)"><circle class="f" cx="3.5" cy="3.5" r="3.5" transform="translate(440 3347)"/></g><g transform="translate(-330 -3259)"><circle class="f" cx="3.5" cy="3.5" r="3.5" transform="translate(440 3347)"/></g><g transform="translate(-319 -3259)"><circle class="f" cx="3.5" cy="3.5" r="3.5" transform="translate(440 3347)"/></g><g transform="translate(-308 -3259)"><circle class="f" cx="3.5" cy="3.5" r="3.5" transform="translate(440 3347)"/></g><g transform="translate(-297 -3259)"><circle class="f" cx="3.5" cy="3.5" r="3.5" transform="translate(440 3347)"/></g><g transform="translate(-286 -3259)"><circle class="f" cx="3.5" cy="3.5" r="3.5" transform="translate(440 3347)"/></g><g transform="translate(-275 -3259)"><circle class="f" cx="3.5" cy="3.5" r="3.5" transform="translate(440 3347)"/></g><g transform="translate(-264 -3259)"><circle class="f" cx="3.5" cy="3.5" r="3.5" transform="translate(440 3347)"/></g><g transform="translate(-253 -3259)"><circle class="f" cx="3.5" cy="3.5" r="3.5" transform="translate(440 3347)"/></g><g transform="translate(-242 -3259)"><circle class="f" cx="3.5" cy="3.5" r="3.5" transform="translate(440 3347)"/></g><g transform="translate(-231 -3259)"><circle class="f" cx="3.5" cy="3.5" r="3.5" transform="translate(440 3347)"/></g><g transform="translate(-220 -3259)"><circle class="f" cx="3.5" cy="3.5" r="3.5" transform="translate(440 3347)"/></g><g transform="translate(-209 -3259)"><circle class="f" cx="3.5" cy="3.5" r="3.5" transform="translate(440 3347)"/></g><g transform="translate(-198 -3259)"><circle class="f" cx="3.5" cy="3.5" r="3.5" transform="translate(440 3347)"/></g><g transform="translate(-187 -3259)"><circle class="f" cx="3.5" cy="3.5" r="3.5" transform="translate(440 3347)"/></g><g transform="translate(-176 -3259)"><circle class="f" cx="3.5" cy="3.5" r="3.5" transform="translate(440 3347)"/></g><g transform="translate(-165 -3259)"><circle class="f" cx="3.5" cy="3.5" r="3.5" transform="translate(440 3347)"/></g><g transform="translate(-154 -3259)"><circle class="f" cx="3.5" cy="3.5" r="3.5" transform="translate(440 3347)"/></g><g transform="translate(-143 -3259)"><circle class="f" cx="3.5" cy="3.5" r="3.5" transform="translate(440 3347)"/></g><g transform="translate(-132 -3259)"><circle class="f" cx="3.5" cy="3.5" r="3.5" transform="translate(440 3347)"/></g><g transform="translate(-121 -3259)"><circle class="f" cx="3.5" cy="3.5" r="3.5" transform="translate(440 3347)"/></g><g transform="translate(-440 -3248)"><circle class="f" cx="3.5" cy="3.5" r="3.5" transform="translate(440 3347)"/></g><g transform="translate(-429 -3248)"><circle class="f" cx="3.5" cy="3.5" r="3.5" transform="translate(440 3347)"/></g><g transform="translate(-418 -3248)"><circle class="f" cx="3.5" cy="3.5" r="3.5" transform="translate(440 3347)"/></g><g transform="translate(-407 -3248)"><circle class="f" cx="3.5" cy="3.5" r="3.5" transform="translate(440 3347)"/></g><g transform="translate(-396 -3248)"><circle class="f" cx="3.5" cy="3.5" r="3.5" transform="translate(440 3347)"/></g><g transform="translate(-385 -3248)"><circle class="f" cx="3.5" cy="3.5" r="3.5" transform="translate(440 3347)"/></g><g transform="translate(-374 -3248)"><circle class="f" cx="3.5" cy="3.5" r="3.5" transform="translate(440 3347)"/></g><g transform="translate(-363 -3248)"><circle class="f" cx="3.5" cy="3.5" r="3.5" transform="translate(440 3347)"/></g><g transform="translate(-352 -3248)"><circle class="f" cx="3.5" cy="3.5" r="3.5" transform="translate(440 3347)"/></g><g transform="translate(-341 -3248)"><circle class="f" cx="3.5" cy="3.5" r="3.5" transform="translate(440 3347)"/></g><g transform="translate(-330 -3248)"><circle class="f" cx="3.5" cy="3.5" r="3.5" transform="translate(440 3347)"/></g><g transform="translate(-319 -3248)"><circle class="f" cx="3.5" cy="3.5" r="3.5" transform="translate(440 3347)"/></g><g transform="translate(-308 -3248)"><circle class="f" cx="3.5" cy="3.5" r="3.5" transform="translate(440 3347)"/></g><g transform="translate(-297 -3248)"><circle class="f" cx="3.5" cy="3.5" r="3.5" transform="translate(440 3347)"/></g><g transform="translate(-286 -3248)"><circle class="f" cx="3.5" cy="3.5" r="3.5" transform="translate(440 3347)"/></g><g transform="translate(-275 -3248)"><circle class="f" cx="3.5" cy="3.5" r="3.5" transform="translate(440 3347)"/></g><g transform="translate(-264 -3248)"><circle class="f" cx="3.5" cy="3.5" r="3.5" transform="translate(440 3347)"/></g><g transform="translate(-253 -3248)"><circle class="f" cx="3.5" cy="3.5" r="3.5" transform="translate(440 3347)"/></g><g transform="translate(-242 -3248)"><circle class="f" cx="3.5" cy="3.5" r="3.5" transform="translate(440 3347)"/></g><g transform="translate(-231 -3248)"><circle class="f" cx="3.5" cy="3.5" r="3.5" transform="translate(440 3347)"/></g><g transform="translate(-220 -3248)"><circle class="f" cx="3.5" cy="3.5" r="3.5" transform="translate(440 3347)"/></g><g transform="translate(-209 -3248)"><circle class="f" cx="3.5" cy="3.5" r="3.5" transform="translate(440 3347)"/></g><g transform="translate(-198 -3248)"><circle class="f" cx="3.5" cy="3.5" r="3.5" transform="translate(440 3347)"/></g><g transform="translate(-187 -3248)"><circle class="f" cx="3.5" cy="3.5" r="3.5" transform="translate(440 3347)"/></g><g transform="translate(-176 -3248)"><circle class="f" cx="3.5" cy="3.5" r="3.5" transform="translate(440 3347)"/></g><g transform="translate(-165 -3248)"><circle class="f" cx="3.5" cy="3.5" r="3.5" transform="translate(440 3347)"/></g><g transform="translate(-154 -3248)"><circle class="f" cx="3.5" cy="3.5" r="3.5" transform="translate(440 3347)"/></g><g transform="translate(-143 -3248)"><circle class="f" cx="3.5" cy="3.5" r="3.5" transform="translate(440 3347)"/></g><g transform="translate(-132 -3248)"><circle class="f" cx="3.5" cy="3.5" r="3.5" transform="translate(440 3347)"/></g><g transform="translate(-121 -3248)"><circle class="f" cx="3.5" cy="3.5" r="3.5" transform="translate(440 3347)"/></g><g transform="translate(-440 -3237)"><circle class="f" cx="3.5" cy="3.5" r="3.5" transform="translate(440 3347)"/></g><g transform="translate(-429 -3237)"><circle class="f" cx="3.5" cy="3.5" r="3.5" transform="translate(440 3347)"/></g><g transform="translate(-418 -3237)"><circle class="f" cx="3.5" cy="3.5" r="3.5" transform="translate(440 3347)"/></g><g transform="translate(-407 -3237)"><circle class="f" cx="3.5" cy="3.5" r="3.5" transform="translate(440 3347)"/></g><g transform="translate(-396 -3237)"><circle class="f" cx="3.5" cy="3.5" r="3.5" transform="translate(440 3347)"/></g><g transform="translate(-385 -3237)"><circle class="f" cx="3.5" cy="3.5" r="3.5" transform="translate(440 3347)"/></g><g transform="translate(-374 -3237)"><circle class="f" cx="3.5" cy="3.5" r="3.5" transform="translate(440 3347)"/></g><g transform="translate(-363 -3237)"><circle class="f" cx="3.5" cy="3.5" r="3.5" transform="translate(440 3347)"/></g><g transform="translate(-352 -3237)"><circle class="f" cx="3.5" cy="3.5" r="3.5" transform="translate(440 3347)"/></g><g transform="translate(-341 -3237)"><circle class="f" cx="3.5" cy="3.5" r="3.5" transform="translate(440 3347)"/></g><g transform="translate(-330 -3237)"><circle class="f" cx="3.5" cy="3.5" r="3.5" transform="translate(440 3347)"/></g><g transform="translate(-319 -3237)"><circle class="f" cx="3.5" cy="3.5" r="3.5" transform="translate(440 3347)"/></g><g transform="translate(-308 -3237)"><circle class="f" cx="3.5" cy="3.5" r="3.5" transform="translate(440 3347)"/></g><g transform="translate(-297 -3237)"><circle class="f" cx="3.5" cy="3.5" r="3.5" transform="translate(440 3347)"/></g><g transform="translate(-286 -3237)"><circle class="f" cx="3.5" cy="3.5" r="3.5" transform="translate(440 3347)"/></g><g transform="translate(-275 -3237)"><circle class="f" cx="3.5" cy="3.5" r="3.5" transform="translate(440 3347)"/></g><g transform="translate(-264 -3237)"><circle class="f" cx="3.5" cy="3.5" r="3.5" transform="translate(440 3347)"/></g><g transform="translate(-253 -3237)"><circle class="f" cx="3.5" cy="3.5" r="3.5" transform="translate(440 3347)"/></g><g transform="translate(-242 -3237)"><circle class="f" cx="3.5" cy="3.5" r="3.5" transform="translate(440 3347)"/></g><g transform="translate(-231 -3237)"><circle class="f" cx="3.5" cy="3.5" r="3.5" transform="translate(440 3347)"/></g><g transform="translate(-220 -3237)"><circle class="f" cx="3.5" cy="3.5" r="3.5" transform="translate(440 3347)"/></g><g transform="translate(-209 -3237)"><circle class="f" cx="3.5" cy="3.5" r="3.5" transform="translate(440 3347)"/></g><g transform="translate(-198 -3237)"><circle class="f" cx="3.5" cy="3.5" r="3.5" transform="translate(440 3347)"/></g><g transform="translate(-187 -3237)"><circle class="f" cx="3.5" cy="3.5" r="3.5" transform="translate(440 3347)"/></g><g transform="translate(-176 -3237)"><circle class="f" cx="3.5" cy="3.5" r="3.5" transform="translate(440 3347)"/></g><g transform="translate(-165 -3237)"><circle class="f" cx="3.5" cy="3.5" r="3.5" transform="translate(440 3347)"/></g><g transform="translate(-154 -3237)"><circle class="f" cx="3.5" cy="3.5" r="3.5" transform="translate(440 3347)"/></g><g transform="translate(-143 -3237)"><circle class="f" cx="3.5" cy="3.5" r="3.5" transform="translate(440 3347)"/></g><g transform="translate(-132 -3237)"><circle class="f" cx="3.5" cy="3.5" r="3.5" transform="translate(440 3347)"/></g><g transform="translate(-121 -3237)"><circle class="f" cx="3.5" cy="3.5" r="3.5" transform="translate(440 3347)"/></g><g transform="translate(-440 -3226)"><circle class="f" cx="3.5" cy="3.5" r="3.5" transform="translate(440 3347)"/></g><g transform="translate(-429 -3226)"><circle class="f" cx="3.5" cy="3.5" r="3.5" transform="translate(440 3347)"/></g><g transform="translate(-418 -3226)"><circle class="f" cx="3.5" cy="3.5" r="3.5" transform="translate(440 3347)"/></g><g transform="translate(-407 -3226)"><circle class="f" cx="3.5" cy="3.5" r="3.5" transform="translate(440 3347)"/></g><g transform="translate(-396 -3226)"><circle class="f" cx="3.5" cy="3.5" r="3.5" transform="translate(440 3347)"/></g><g transform="translate(-385 -3226)"><circle class="f" cx="3.5" cy="3.5" r="3.5" transform="translate(440 3347)"/></g><g transform="translate(-374 -3226)"><circle class="f" cx="3.5" cy="3.5" r="3.5" transform="translate(440 3347)"/></g><g transform="translate(-363 -3226)"><circle class="f" cx="3.5" cy="3.5" r="3.5" transform="translate(440 3347)"/></g><g transform="translate(-352 -3226)"><circle class="f" cx="3.5" cy="3.5" r="3.5" transform="translate(440 3347)"/></g><g transform="translate(-341 -3226)"><circle class="f" cx="3.5" cy="3.5" r="3.5" transform="translate(440 3347)"/></g><g transform="translate(-330 -3226)"><circle class="f" cx="3.5" cy="3.5" r="3.5" transform="translate(440 3347)"/></g><g transform="translate(-319 -3226)"><circle class="f" cx="3.5" cy="3.5" r="3.5" transform="translate(440 3347)"/></g><g transform="translate(-308 -3226)"><circle class="f" cx="3.5" cy="3.5" r="3.5" transform="translate(440 3347)"/></g><g transform="translate(-297 -3226)"><circle class="f" cx="3.5" cy="3.5" r="3.5" transform="translate(440 3347)"/></g><g transform="translate(-286 -3226)"><circle class="f" cx="3.5" cy="3.5" r="3.5" transform="translate(440 3347)"/></g><g transform="translate(-275 -3226)"><circle class="f" cx="3.5" cy="3.5" r="3.5" transform="translate(440 3347)"/></g><g transform="translate(-264 -3226)"><circle class="f" cx="3.5" cy="3.5" r="3.5" transform="translate(440 3347)"/></g><g transform="translate(-253 -3226)"><circle class="f" cx="3.5" cy="3.5" r="3.5" transform="translate(440 3347)"/></g><g transform="translate(-242 -3226)"><circle class="f" cx="3.5" cy="3.5" r="3.5" transform="translate(440 3347)"/></g><g transform="translate(-231 -3226)"><circle class="f" cx="3.5" cy="3.5" r="3.5" transform="translate(440 3347)"/></g><g transform="translate(-220 -3226)"><circle class="f" cx="3.5" cy="3.5" r="3.5" transform="translate(440 3347)"/></g><g transform="translate(-209 -3226)"><circle class="f" cx="3.5" cy="3.5" r="3.5" transform="translate(440 3347)"/></g><g transform="translate(-198 -3226)"><circle class="f" cx="3.5" cy="3.5" r="3.5" transform="translate(440 3347)"/></g><g transform="translate(-187 -3226)"><circle class="f" cx="3.5" cy="3.5" r="3.5" transform="translate(440 3347)"/></g><g transform="translate(-176 -3226)"><circle class="f" cx="3.5" cy="3.5" r="3.5" transform="translate(440 3347)"/></g><g transform="translate(-165 -3226)"><circle class="f" cx="3.5" cy="3.5" r="3.5" transform="translate(440 3347)"/></g><g transform="translate(-154 -3226)"><circle class="f" cx="3.5" cy="3.5" r="3.5" transform="translate(440 3347)"/></g><g transform="translate(-143 -3226)"><circle class="f" cx="3.5" cy="3.5" r="3.5" transform="translate(440 3347)"/></g><g transform="translate(-132 -3226)"><circle class="f" cx="3.5" cy="3.5" r="3.5" transform="translate(440 3347)"/></g><g transform="translate(-121 -3226)"><circle class="f" cx="3.5" cy="3.5" r="3.5" transform="translate(440 3347)"/></g><g transform="translate(-440 -3215)"><circle class="f" cx="3.5" cy="3.5" r="3.5" transform="translate(440 3347)"/></g><g transform="translate(-429 -3215)"><circle class="f" cx="3.5" cy="3.5" r="3.5" transform="translate(440 3347)"/></g><g transform="translate(-418 -3215)"><circle class="f" cx="3.5" cy="3.5" r="3.5" transform="translate(440 3347)"/></g><g transform="translate(-407 -3215)"><circle class="f" cx="3.5" cy="3.5" r="3.5" transform="translate(440 3347)"/></g><g transform="translate(-396 -3215)"><circle class="f" cx="3.5" cy="3.5" r="3.5" transform="translate(440 3347)"/></g><g transform="translate(-385 -3215)"><circle class="f" cx="3.5" cy="3.5" r="3.5" transform="translate(440 3347)"/></g><g transform="translate(-374 -3215)"><circle class="f" cx="3.5" cy="3.5" r="3.5" transform="translate(440 3347)"/></g><g transform="translate(-363 -3215)"><circle class="f" cx="3.5" cy="3.5" r="3.5" transform="translate(440 3347)"/></g><g transform="translate(-352 -3215)"><circle class="f" cx="3.5" cy="3.5" r="3.5" transform="translate(440 3347)"/></g><g transform="translate(-341 -3215)"><circle class="f" cx="3.5" cy="3.5" r="3.5" transform="translate(440 3347)"/></g><g transform="translate(-330 -3215)"><circle class="f" cx="3.5" cy="3.5" r="3.5" transform="translate(440 3347)"/></g><g transform="translate(-319 -3215)"><circle class="f" cx="3.5" cy="3.5" r="3.5" transform="translate(440 3347)"/></g><g transform="translate(-308 -3215)"><circle class="f" cx="3.5" cy="3.5" r="3.5" transform="translate(440 3347)"/></g><g transform="translate(-297 -3215)"><circle class="f" cx="3.5" cy="3.5" r="3.5" transform="translate(440 3347)"/></g><g transform="translate(-286 -3215)"><circle class="f" cx="3.5" cy="3.5" r="3.5" transform="translate(440 3347)"/></g><g transform="translate(-275 -3215)"><circle class="f" cx="3.5" cy="3.5" r="3.5" transform="translate(440 3347)"/></g><g transform="translate(-264 -3215)"><circle class="f" cx="3.5" cy="3.5" r="3.5" transform="translate(440 3347)"/></g><g transform="translate(-253 -3215)"><circle class="f" cx="3.5" cy="3.5" r="3.5" transform="translate(440 3347)"/></g><g transform="translate(-242 -3215)"><circle class="f" cx="3.5" cy="3.5" r="3.5" transform="translate(440 3347)"/></g><g transform="translate(-231 -3215)"><circle class="f" cx="3.5" cy="3.5" r="3.5" transform="translate(440 3347)"/></g><g transform="translate(-220 -3215)"><circle class="f" cx="3.5" cy="3.5" r="3.5" transform="translate(440 3347)"/></g><g transform="translate(-209 -3215)"><circle class="f" cx="3.5" cy="3.5" r="3.5" transform="translate(440 3347)"/></g><g transform="translate(-198 -3215)"><circle class="f" cx="3.5" cy="3.5" r="3.5" transform="translate(440 3347)"/></g><g transform="translate(-187 -3215)"><circle class="f" cx="3.5" cy="3.5" r="3.5" transform="translate(440 3347)"/></g><g transform="translate(-176 -3215)"><circle class="f" cx="3.5" cy="3.5" r="3.5" transform="translate(440 3347)"/></g><g transform="translate(-165 -3215)"><circle class="f" cx="3.5" cy="3.5" r="3.5" transform="translate(440 3347)"/></g><g transform="translate(-154 -3215)"><circle class="f" cx="3.5" cy="3.5" r="3.5" transform="translate(440 3347)"/></g><g transform="translate(-143 -3215)"><circle class="f" cx="3.5" cy="3.5" r="3.5" transform="translate(440 3347)"/></g><g transform="translate(-132 -3215)"><circle class="f" cx="3.5" cy="3.5" r="3.5" transform="translate(440 3347)"/></g><g transform="translate(-121 -3215)"><circle class="f" cx="3.5" cy="3.5" r="3.5" transform="translate(440 3347)"/></g><g transform="translate(-440 -3204)"><circle class="f" cx="3.5" cy="3.5" r="3.5" transform="translate(440 3347)"/></g><g transform="translate(-429 -3204)"><circle class="f" cx="3.5" cy="3.5" r="3.5" transform="translate(440 3347)"/></g><g transform="translate(-418 -3204)"><circle class="f" cx="3.5" cy="3.5" r="3.5" transform="translate(440 3347)"/></g><g transform="translate(-407 -3204)"><circle class="f" cx="3.5" cy="3.5" r="3.5" transform="translate(440 3347)"/></g><g transform="translate(-396 -3204)"><circle class="f" cx="3.5" cy="3.5" r="3.5" transform="translate(440 3347)"/></g><g transform="translate(-385 -3204)"><circle class="f" cx="3.5" cy="3.5" r="3.5" transform="translate(440 3347)"/></g><g transform="translate(-374 -3204)"><circle class="f" cx="3.5" cy="3.5" r="3.5" transform="translate(440 3347)"/></g><g transform="translate(-363 -3204)"><circle class="f" cx="3.5" cy="3.5" r="3.5" transform="translate(440 3347)"/></g><g transform="translate(-352 -3204)"><circle class="f" cx="3.5" cy="3.5" r="3.5" transform="translate(440 3347)"/></g><g transform="translate(-341 -3204)"><circle class="f" cx="3.5" cy="3.5" r="3.5" transform="translate(440 3347)"/></g><g transform="translate(-330 -3204)"><circle class="f" cx="3.5" cy="3.5" r="3.5" transform="translate(440 3347)"/></g><g transform="translate(-319 -3204)"><circle class="f" cx="3.5" cy="3.5" r="3.5" transform="translate(440 3347)"/></g><g transform="translate(-308 -3204)"><circle class="f" cx="3.5" cy="3.5" r="3.5" transform="translate(440 3347)"/></g><g transform="translate(-297 -3204)"><circle class="f" cx="3.5" cy="3.5" r="3.5" transform="translate(440 3347)"/></g><g transform="translate(-286 -3204)"><circle class="f" cx="3.5" cy="3.5" r="3.5" transform="translate(440 3347)"/></g><g transform="translate(-275 -3204)"><circle class="f" cx="3.5" cy="3.5" r="3.5" transform="translate(440 3347)"/></g><g transform="translate(-264 -3204)"><circle class="f" cx="3.5" cy="3.5" r="3.5" transform="translate(440 3347)"/></g><g transform="translate(-253 -3204)"><circle class="f" cx="3.5" cy="3.5" r="3.5" transform="translate(440 3347)"/></g><g transform="translate(-242 -3204)"><circle class="f" cx="3.5" cy="3.5" r="3.5" transform="translate(440 3347)"/></g><g transform="translate(-231 -3204)"><circle class="f" cx="3.5" cy="3.5" r="3.5" transform="translate(440 3347)"/></g><g transform="translate(-220 -3204)"><circle class="f" cx="3.5" cy="3.5" r="3.5" transform="translate(440 3347)"/></g><g transform="translate(-209 -3204)"><circle class="f" cx="3.5" cy="3.5" r="3.5" transform="translate(440 3347)"/></g><g transform="translate(-198 -3204)"><circle class="f" cx="3.5" cy="3.5" r="3.5" transform="translate(440 3347)"/></g><g transform="translate(-187 -3204)"><circle class="f" cx="3.5" cy="3.5" r="3.5" transform="translate(440 3347)"/></g><g transform="translate(-176 -3204)"><circle class="f" cx="3.5" cy="3.5" r="3.5" transform="translate(440 3347)"/></g><g transform="translate(-165 -3204)"><circle class="f" cx="3.5" cy="3.5" r="3.5" transform="translate(440 3347)"/></g><g transform="translate(-154 -3204)"><circle class="f" cx="3.5" cy="3.5" r="3.5" transform="translate(440 3347)"/></g><g transform="translate(-143 -3204)"><circle class="f" cx="3.5" cy="3.5" r="3.5" transform="translate(440 3347)"/></g><g transform="translate(-132 -3204)"><circle class="f" cx="3.5" cy="3.5" r="3.5" transform="translate(440 3347)"/></g><g transform="translate(-121 -3204)"><circle class="f" cx="3.5" cy="3.5" r="3.5" transform="translate(440 3347)"/></g><g transform="translate(-440 -3193)"><circle class="f" cx="3.5" cy="3.5" r="3.5" transform="translate(440 3347)"/></g><g transform="translate(-429 -3193)"><circle class="f" cx="3.5" cy="3.5" r="3.5" transform="translate(440 3347)"/></g><g transform="translate(-418 -3193)"><circle class="f" cx="3.5" cy="3.5" r="3.5" transform="translate(440 3347)"/></g><g transform="translate(-407 -3193)"><circle class="f" cx="3.5" cy="3.5" r="3.5" transform="translate(440 3347)"/></g><g transform="translate(-396 -3193)"><circle class="f" cx="3.5" cy="3.5" r="3.5" transform="translate(440 3347)"/></g><g transform="translate(-385 -3193)"><circle class="f" cx="3.5" cy="3.5" r="3.5" transform="translate(440 3347)"/></g><g transform="translate(-374 -3193)"><circle class="f" cx="3.5" cy="3.5" r="3.5" transform="translate(440 3347)"/></g><g transform="translate(-363 -3193)"><circle class="f" cx="3.5" cy="3.5" r="3.5" transform="translate(440 3347)"/></g><g transform="translate(-352 -3193)"><circle class="f" cx="3.5" cy="3.5" r="3.5" transform="translate(440 3347)"/></g><g transform="translate(-341 -3193)"><circle class="f" cx="3.5" cy="3.5" r="3.5" transform="translate(440 3347)"/></g><g transform="translate(-330 -3193)"><circle class="f" cx="3.5" cy="3.5" r="3.5" transform="translate(440 3347)"/></g><g transform="translate(-319 -3193)"><circle class="f" cx="3.5" cy="3.5" r="3.5" transform="translate(440 3347)"/></g><g transform="translate(-308 -3193)"><circle class="f" cx="3.5" cy="3.5" r="3.5" transform="translate(440 3347)"/></g><g transform="translate(-297 -3193)"><circle class="f" cx="3.5" cy="3.5" r="3.5" transform="translate(440 3347)"/></g><g transform="translate(-286 -3193)"><circle class="f" cx="3.5" cy="3.5" r="3.5" transform="translate(440 3347)"/></g><g transform="translate(-275 -3193)"><circle class="f" cx="3.5" cy="3.5" r="3.5" transform="translate(440 3347)"/></g><g transform="translate(-264 -3193)"><circle class="f" cx="3.5" cy="3.5" r="3.5" transform="translate(440 3347)"/></g><g transform="translate(-253 -3193)"><circle class="f" cx="3.5" cy="3.5" r="3.5" transform="translate(440 3347)"/></g><g transform="translate(-242 -3193)"><circle class="f" cx="3.5" cy="3.5" r="3.5" transform="translate(440 3347)"/></g><g transform="translate(-231 -3193)"><circle class="f" cx="3.5" cy="3.5" r="3.5" transform="translate(440 3347)"/></g><g transform="translate(-220 -3193)"><circle class="f" cx="3.5" cy="3.5" r="3.5" transform="translate(440 3347)"/></g><g transform="translate(-209 -3193)"><circle class="f" cx="3.5" cy="3.5" r="3.5" transform="translate(440 3347)"/></g><g transform="translate(-198 -3193)"><circle class="f" cx="3.5" cy="3.5" r="3.5" transform="translate(440 3347)"/></g><g transform="translate(-187 -3193)"><circle class="f" cx="3.5" cy="3.5" r="3.5" transform="translate(440 3347)"/></g><g transform="translate(-176 -3193)"><circle class="f" cx="3.5" cy="3.5" r="3.5" transform="translate(440 3347)"/></g><g transform="translate(-165 -3193)"><circle class="f" cx="3.5" cy="3.5" r="3.5" transform="translate(440 3347)"/></g><g transform="translate(-154 -3193)"><circle class="f" cx="3.5" cy="3.5" r="3.5" transform="translate(440 3347)"/></g><g transform="translate(-143 -3193)"><circle class="f" cx="3.5" cy="3.5" r="3.5" transform="translate(440 3347)"/></g><g transform="translate(-132 -3193)"><circle class="f" cx="3.5" cy="3.5" r="3.5" transform="translate(440 3347)"/></g><g transform="translate(-121 -3193)"><circle class="f" cx="3.5" cy="3.5" r="3.5" transform="translate(440 3347)"/></g><g transform="translate(-440 -3182)"><circle class="f" cx="3.5" cy="3.5" r="3.5" transform="translate(440 3347)"/></g><g transform="translate(-429 -3182)"><circle class="f" cx="3.5" cy="3.5" r="3.5" transform="translate(440 3347)"/></g><g transform="translate(-418 -3182)"><circle class="f" cx="3.5" cy="3.5" r="3.5" transform="translate(440 3347)"/></g><g transform="translate(-407 -3182)"><circle class="f" cx="3.5" cy="3.5" r="3.5" transform="translate(440 3347)"/></g><g transform="translate(-396 -3182)"><circle class="f" cx="3.5" cy="3.5" r="3.5" transform="translate(440 3347)"/></g><g transform="translate(-385 -3182)"><circle class="f" cx="3.5" cy="3.5" r="3.5" transform="translate(440 3347)"/></g><g transform="translate(-374 -3182)"><circle class="f" cx="3.5" cy="3.5" r="3.5" transform="translate(440 3347)"/></g><g transform="translate(-363 -3182)"><circle class="f" cx="3.5" cy="3.5" r="3.5" transform="translate(440 3347)"/></g><g transform="translate(-352 -3182)"><circle class="f" cx="3.5" cy="3.5" r="3.5" transform="translate(440 3347)"/></g><g transform="translate(-341 -3182)"><circle class="f" cx="3.5" cy="3.5" r="3.5" transform="translate(440 3347)"/></g><g transform="translate(-330 -3182)"><circle class="f" cx="3.5" cy="3.5" r="3.5" transform="translate(440 3347)"/></g><g transform="translate(-319 -3182)"><circle class="f" cx="3.5" cy="3.5" r="3.5" transform="translate(440 3347)"/></g><g transform="translate(-308 -3182)"><circle class="f" cx="3.5" cy="3.5" r="3.5" transform="translate(440 3347)"/></g><g transform="translate(-297 -3182)"><circle class="f" cx="3.5" cy="3.5" r="3.5" transform="translate(440 3347)"/></g><g transform="translate(-286 -3182)"><circle class="f" cx="3.5" cy="3.5" r="3.5" transform="translate(440 3347)"/></g><g transform="translate(-275 -3182)"><circle class="f" cx="3.5" cy="3.5" r="3.5" transform="translate(440 3347)"/></g><g transform="translate(-264 -3182)"><circle class="f" cx="3.5" cy="3.5" r="3.5" transform="translate(440 3347)"/></g><g transform="translate(-253 -3182)"><circle class="f" cx="3.5" cy="3.5" r="3.5" transform="translate(440 3347)"/></g><g transform="translate(-242 -3182)"><circle class="f" cx="3.5" cy="3.5" r="3.5" transform="translate(440 3347)"/></g><g transform="translate(-231 -3182)"><circle class="f" cx="3.5" cy="3.5" r="3.5" transform="translate(440 3347)"/></g><g transform="translate(-220 -3182)"><circle class="f" cx="3.5" cy="3.5" r="3.5" transform="translate(440 3347)"/></g><g transform="translate(-209 -3182)"><circle class="f" cx="3.5" cy="3.5" r="3.5" transform="translate(440 3347)"/></g><g transform="translate(-198 -3182)"><circle class="f" cx="3.5" cy="3.5" r="3.5" transform="translate(440 3347)"/></g><g transform="translate(-187 -3182)"><circle class="f" cx="3.5" cy="3.5" r="3.5" transform="translate(440 3347)"/></g><g transform="translate(-176 -3182)"><circle class="f" cx="3.5" cy="3.5" r="3.5" transform="translate(440 3347)"/></g><g transform="translate(-165 -3182)"><circle class="f" cx="3.5" cy="3.5" r="3.5" transform="translate(440 3347)"/></g><g transform="translate(-154 -3182)"><circle class="f" cx="3.5" cy="3.5" r="3.5" transform="translate(440 3347)"/></g><g transform="translate(-143 -3182)"><circle class="f" cx="3.5" cy="3.5" r="3.5" transform="translate(440 3347)"/></g><g transform="translate(-132 -3182)"><circle class="f" cx="3.5" cy="3.5" r="3.5" transform="translate(440 3347)"/></g><g transform="translate(-121 -3182)"><circle class="f" cx="3.5" cy="3.5" r="3.5" transform="translate(440 3347)"/></g><g transform="translate(-440 -3171)"><circle class="f" cx="3.5" cy="3.5" r="3.5" transform="translate(440 3347)"/></g><g transform="translate(-429 -3171)"><circle class="f" cx="3.5" cy="3.5" r="3.5" transform="translate(440 3347)"/></g><g transform="translate(-418 -3171)"><circle class="f" cx="3.5" cy="3.5" r="3.5" transform="translate(440 3347)"/></g><g transform="translate(-407 -3171)"><circle class="f" cx="3.5" cy="3.5" r="3.5" transform="translate(440 3347)"/></g><g transform="translate(-396 -3171)"><circle class="f" cx="3.5" cy="3.5" r="3.5" transform="translate(440 3347)"/></g><g transform="translate(-385 -3171)"><circle class="f" cx="3.5" cy="3.5" r="3.5" transform="translate(440 3347)"/></g><g transform="translate(-374 -3171)"><circle class="f" cx="3.5" cy="3.5" r="3.5" transform="translate(440 3347)"/></g><g transform="translate(-363 -3171)"><circle class="f" cx="3.5" cy="3.5" r="3.5" transform="translate(440 3347)"/></g><g transform="translate(-352 -3171)"><circle class="f" cx="3.5" cy="3.5" r="3.5" transform="translate(440 3347)"/></g><g transform="translate(-341 -3171)"><circle class="f" cx="3.5" cy="3.5" r="3.5" transform="translate(440 3347)"/></g><g transform="translate(-330 -3171)"><circle class="f" cx="3.5" cy="3.5" r="3.5" transform="translate(440 3347)"/></g><g transform="translate(-319 -3171)"><circle class="f" cx="3.5" cy="3.5" r="3.5" transform="translate(440 3347)"/></g><g transform="translate(-308 -3171)"><circle class="f" cx="3.5" cy="3.5" r="3.5" transform="translate(440 3347)"/></g><g transform="translate(-297 -3171)"><circle class="f" cx="3.5" cy="3.5" r="3.5" transform="translate(440 3347)"/></g><g transform="translate(-286 -3171)"><circle class="f" cx="3.5" cy="3.5" r="3.5" transform="translate(440 3347)"/></g><g transform="translate(-275 -3171)"><circle class="f" cx="3.5" cy="3.5" r="3.5" transform="translate(440 3347)"/></g><g transform="translate(-264 -3171)"><circle class="f" cx="3.5" cy="3.5" r="3.5" transform="translate(440 3347)"/></g><g transform="translate(-253 -3171)"><circle class="f" cx="3.5" cy="3.5" r="3.5" transform="translate(440 3347)"/></g><g transform="translate(-242 -3171)"><circle class="f" cx="3.5" cy="3.5" r="3.5" transform="translate(440 3347)"/></g><g transform="translate(-231 -3171)"><circle class="f" cx="3.5" cy="3.5" r="3.5" transform="translate(440 3347)"/></g><g transform="translate(-220 -3171)"><circle class="f" cx="3.5" cy="3.5" r="3.5" transform="translate(440 3347)"/></g><g transform="translate(-209 -3171)"><circle class="f" cx="3.5" cy="3.5" r="3.5" transform="translate(440 3347)"/></g><g transform="translate(-198 -3171)"><circle class="f" cx="3.5" cy="3.5" r="3.5" transform="translate(440 3347)"/></g><g transform="translate(-187 -3171)"><circle class="f" cx="3.5" cy="3.5" r="3.5" transform="translate(440 3347)"/></g><g transform="translate(-176 -3171)"><circle class="f" cx="3.5" cy="3.5" r="3.5" transform="translate(440 3347)"/></g><g transform="translate(-165 -3171)"><circle class="f" cx="3.5" cy="3.5" r="3.5" transform="translate(440 3347)"/></g><g transform="translate(-154 -3171)"><circle class="f" cx="3.5" cy="3.5" r="3.5" transform="translate(440 3347)"/></g><g transform="translate(-143 -3171)"><circle class="f" cx="3.5" cy="3.5" r="3.5" transform="translate(440 3347)"/></g><g transform="translate(-132 -3171)"><circle class="f" cx="3.5" cy="3.5" r="3.5" transform="translate(440 3347)"/></g><g transform="translate(-121 -3171)"><circle class="f" cx="3.5" cy="3.5" r="3.5" transform="translate(440 3347)"/></g></g></g></g></svg>